<mxfile host="app.diagrams.net" modified="2021-06-20T07:43:15.797Z" agent="5.0 (Windows NT 10.0; Win64; x64) AppleWebKit/537.36 (KHTML, like Gecko) Chrome/91.0.4472.101 Safari/537.36 Edg/91.0.864.48" etag="u-QjAt3FHpUO_x5kugkU" version="14.7.6" type="github">
  <diagram id="6a731a19-8d31-9384-78a2-239565b7b9f0" name="Page-1">
    <mxGraphModel dx="1038" dy="547" grid="1" gridSize="10" guides="1" tooltips="1" connect="1" arrows="1" fold="1" page="1" pageScale="1" pageWidth="1169" pageHeight="827" background="#003469" math="0" shadow="0">
      <root>
        <mxCell id="0" />
        <mxCell id="1" parent="0" />
        <mxCell id="2019" value="" style="rounded=1;whiteSpace=wrap;html=1;dashed=1;strokeColor=none;strokeWidth=2;fillColor=#E6E6E6;fontFamily=Verdana;fontSize=12;fontColor=#00BEF2" parent="1" vertex="1">
          <mxGeometry x="50" y="120" width="165" height="670" as="geometry" />
        </mxCell>
        <mxCell id="2020" value="" style="rounded=1;whiteSpace=wrap;html=1;dashed=1;strokeColor=none;strokeWidth=2;fillColor=#E6E6E6;fontFamily=Verdana;fontSize=12;fontColor=#00BEF2" parent="1" vertex="1">
          <mxGeometry x="220" y="120" width="165" height="670" as="geometry" />
        </mxCell>
        <mxCell id="2021" value="" style="rounded=1;whiteSpace=wrap;html=1;dashed=1;strokeColor=none;strokeWidth=2;fillColor=#E6E6E6;fontFamily=Verdana;fontSize=12;fontColor=#00BEF2" parent="1" vertex="1">
          <mxGeometry x="400" y="120" width="165" height="670" as="geometry" />
        </mxCell>
        <mxCell id="2022" value="" style="rounded=1;whiteSpace=wrap;html=1;dashed=1;strokeColor=none;strokeWidth=2;fillColor=#E6E6E6;fontFamily=Verdana;fontSize=12;fontColor=#00BEF2" parent="1" vertex="1">
          <mxGeometry x="580" y="120" width="165" height="670" as="geometry" />
        </mxCell>
        <mxCell id="2023" value="" style="rounded=1;whiteSpace=wrap;html=1;dashed=1;strokeColor=none;strokeWidth=2;fillColor=#E6E6E6;fontFamily=Verdana;fontSize=12;fontColor=#00BEF2" parent="1" vertex="1">
          <mxGeometry x="760" y="120" width="165" height="670" as="geometry" />
        </mxCell>
        <mxCell id="2024" value="" style="rounded=1;whiteSpace=wrap;html=1;dashed=1;strokeColor=none;strokeWidth=2;fillColor=#E6E6E6;fontFamily=Verdana;fontSize=12;fontColor=#00BEF2" parent="1" vertex="1">
          <mxGeometry x="940" y="120" width="165" height="670" as="geometry" />
        </mxCell>
        <mxCell id="2025" value="Event" style="whiteSpace=wrap;html=1;dashed=1;strokeColor=none;strokeWidth=2;fillColor=#3399FF;fontFamily=Helvetica;fontSize=18;fontColor=#FFFFFF;fontStyle=1" parent="1" vertex="1">
          <mxGeometry x="40" y="120" width="165" height="60" as="geometry" />
        </mxCell>
        <mxCell id="2026" value="Compute" style="whiteSpace=wrap;html=1;dashed=1;strokeColor=none;strokeWidth=2;fillColor=#3399FF;fontFamily=Helvetica;fontSize=18;fontColor=#FFFFFF;fontStyle=1" parent="1" vertex="1">
          <mxGeometry x="220" y="120" width="165" height="60" as="geometry" />
        </mxCell>
        <mxCell id="2027" value="Data&lt;div&gt;Services&lt;/div&gt;" style="whiteSpace=wrap;html=1;dashed=1;strokeColor=none;strokeWidth=2;fillColor=#3399FF;fontFamily=Helvetica;fontSize=18;fontColor=#FFFFFF;fontStyle=1" parent="1" vertex="1">
          <mxGeometry x="400" y="120" width="165" height="60" as="geometry" />
        </mxCell>
        <mxCell id="2028" value="Data&lt;div&gt;Storage&lt;/div&gt;" style="whiteSpace=wrap;html=1;dashed=1;strokeColor=none;strokeWidth=2;fillColor=#3399FF;fontFamily=Helvetica;fontSize=18;fontColor=#FFFFFF;fontStyle=1" parent="1" vertex="1">
          <mxGeometry x="580" y="120" width="165" height="60" as="geometry" />
        </mxCell>
        <mxCell id="2029" value="App&lt;div&gt;Services&lt;/div&gt;" style="whiteSpace=wrap;html=1;dashed=1;strokeColor=none;strokeWidth=2;fillColor=#3399FF;fontFamily=Helvetica;fontSize=18;fontColor=#FFFFFF;fontStyle=1" parent="1" vertex="1">
          <mxGeometry x="760" y="120" width="165" height="60" as="geometry" />
        </mxCell>
        <mxCell id="2030" value="&amp;nbsp; &amp;nbsp;Presentation" style="whiteSpace=wrap;html=1;dashed=1;strokeColor=none;strokeWidth=2;fillColor=#3399FF;fontFamily=Helvetica;fontSize=18;fontColor=#FFFFFF;fontStyle=1" parent="1" vertex="1">
          <mxGeometry x="940" y="120" width="165" height="60" as="geometry" />
        </mxCell>
        <mxCell id="2031" value="" style="shape=mxgraph.arrows.two_way_arrow_horizontal;html=1;verticalLabelPosition=bottom;verticalAlign=top;strokeWidth=2;strokeColor=none;dashed=1;fillColor=#FFFFFF;fontFamily=Verdana;fontSize=12;fontColor=#00BEF2" parent="1" vertex="1">
          <mxGeometry x="180" y="131" width="67" height="39" as="geometry" />
        </mxCell>
        <mxCell id="2032" value="" style="shape=mxgraph.arrows.two_way_arrow_horizontal;html=1;verticalLabelPosition=bottom;verticalAlign=top;strokeWidth=2;strokeColor=none;dashed=1;fillColor=#FFFFFF;fontFamily=Verdana;fontSize=12;fontColor=#00BEF2" parent="1" vertex="1">
          <mxGeometry x="360" y="131" width="67" height="39" as="geometry" />
        </mxCell>
        <mxCell id="2033" value="" style="shape=mxgraph.arrows.two_way_arrow_horizontal;html=1;verticalLabelPosition=bottom;verticalAlign=top;strokeWidth=2;strokeColor=none;dashed=1;fillColor=#FFFFFF;fontFamily=Verdana;fontSize=12;fontColor=#00BEF2" parent="1" vertex="1">
          <mxGeometry x="540" y="131" width="67" height="39" as="geometry" />
        </mxCell>
        <mxCell id="2034" value="" style="shape=mxgraph.arrows.two_way_arrow_horizontal;html=1;verticalLabelPosition=bottom;verticalAlign=top;strokeWidth=2;strokeColor=none;dashed=1;fillColor=#FFFFFF;fontFamily=Verdana;fontSize=12;fontColor=#00BEF2" parent="1" vertex="1">
          <mxGeometry x="720" y="131" width="67" height="39" as="geometry" />
        </mxCell>
        <mxCell id="2035" value="" style="shape=mxgraph.arrows.two_way_arrow_horizontal;html=1;verticalLabelPosition=bottom;verticalAlign=top;strokeWidth=2;strokeColor=none;dashed=1;fillColor=#FFFFFF;fontFamily=Verdana;fontSize=12;fontColor=#00BEF2" parent="1" vertex="1">
          <mxGeometry x="900" y="131" width="67" height="39" as="geometry" />
        </mxCell>
        <mxCell id="2036" value="" style="verticalLabelPosition=bottom;html=1;verticalAlign=top;strokeColor=none;fillColor=#003366;shape=mxgraph.azure.cloud_service;dashed=1;fontFamily=Helvetica;fontSize=18;fontColor=#FFFFFF;opacity=25" parent="1" vertex="1">
          <mxGeometry x="92" y="180" width="970" height="600" as="geometry" />
        </mxCell>
        <mxCell id="pgp2nBGtSMHjbhWHDTlj-2086" style="edgeStyle=orthogonalEdgeStyle;rounded=0;orthogonalLoop=1;jettySize=auto;html=1;exitX=0.5;exitY=0;exitDx=0;exitDy=0;exitPerimeter=0;" parent="1" source="2037" target="2019" edge="1">
          <mxGeometry relative="1" as="geometry" />
        </mxCell>
        <mxCell id="2037" value="" style="verticalLabelPosition=bottom;html=1;verticalAlign=top;strokeColor=none;fillColor=#3399FF;shape=mxgraph.azure.tablet;dashed=1;fontFamily=Helvetica;fontSize=14;fontColor=#004C99" parent="1" vertex="1">
          <mxGeometry x="66" y="388.5" width="50" height="51.5" as="geometry" />
        </mxCell>
        <mxCell id="2038" value="" style="verticalLabelPosition=bottom;html=1;verticalAlign=top;strokeColor=none;fillColor=#3399FF;shape=mxgraph.azure.mobile;dashed=1;fontFamily=Helvetica;fontSize=14;fontColor=#004C99" parent="1" vertex="1">
          <mxGeometry x="146" y="395" width="35" height="50" as="geometry" />
        </mxCell>
        <mxCell id="2039" value="Devices" style="verticalLabelPosition=bottom;html=1;verticalAlign=top;strokeColor=none;fillColor=#3399FF;shape=mxgraph.azure.laptop;dashed=1;fontFamily=Helvetica;fontSize=14;fontColor=#004C99" parent="1" vertex="1">
          <mxGeometry x="96" y="451" width="50" height="30" as="geometry" />
        </mxCell>
        <mxCell id="2040" value="Applications" style="verticalLabelPosition=bottom;html=1;verticalAlign=top;strokeColor=none;fillColor=#3399FF;shape=mxgraph.azure.mobile_services;dashed=1;fontFamily=Helvetica;fontSize=14;fontColor=#004C99" parent="1" vertex="1">
          <mxGeometry x="107" y="250" width="32.5" height="50" as="geometry" />
        </mxCell>
        <mxCell id="2041" value="Social" style="verticalLabelPosition=bottom;html=1;verticalAlign=top;strokeColor=none;fillColor=#3399FF;shape=mxgraph.azure.user;dashed=1;fontSize=14;fontColor=#004C99" parent="1" vertex="1">
          <mxGeometry x="92" y="680" width="47.5" height="50" as="geometry" />
        </mxCell>
        <mxCell id="2042" value="" style="verticalLabelPosition=bottom;html=1;verticalAlign=top;strokeColor=none;fillColor=#3399FF;shape=mxgraph.azure.github_code;dashed=1;fontSize=14;fontColor=#004C99" parent="1" vertex="1">
          <mxGeometry x="133" y="560" width="50" height="50" as="geometry" />
        </mxCell>
        <mxCell id="2043" value="" style="verticalLabelPosition=bottom;html=1;verticalAlign=top;strokeColor=none;fillColor=#3399FF;shape=mxgraph.azure.dropbox_code_source;dashed=1;fontSize=14;fontColor=#004C99" parent="1" vertex="1">
          <mxGeometry x="73" y="563" width="50" height="47.5" as="geometry" />
        </mxCell>
        <mxCell id="2044" value="Repositories" style="text;html=1;strokeColor=none;fillColor=none;align=center;verticalAlign=middle;whiteSpace=wrap;overflow=hidden;dashed=1;fontSize=14;fontColor=#004C99" parent="1" vertex="1">
          <mxGeometry x="60" y="620" width="120" height="20" as="geometry" />
        </mxCell>
        <mxCell id="2045" value="Azure Website" style="verticalLabelPosition=bottom;html=1;verticalAlign=top;strokeColor=none;fillColor=#3399FF;shape=mxgraph.azure.azure_website;dashed=1;fontSize=14;fontColor=#004C99" parent="1" vertex="1">
          <mxGeometry x="278" y="258" width="50" height="50" as="geometry" />
        </mxCell>
        <mxCell id="2046" value="Mobile Services" style="verticalLabelPosition=bottom;html=1;verticalAlign=top;strokeColor=none;fillColor=#3399FF;shape=mxgraph.azure.mobile_services;dashed=1;fontSize=14;fontColor=#004C99" parent="1" vertex="1">
          <mxGeometry x="287" y="661" width="32.5" height="50" as="geometry" />
        </mxCell>
        <mxCell id="2047" value="Windows Azure Management Portal" style="text;html=1;strokeColor=none;fillColor=none;align=center;verticalAlign=middle;whiteSpace=wrap;overflow=hidden;dashed=1;fontSize=36;fontColor=#FFFFFF;fontFamily=Helvetica;fontStyle=1" parent="1" vertex="1">
          <mxGeometry x="40" y="50" width="1060" height="50" as="geometry" />
        </mxCell>
        <mxCell id="2048" value="Business&amp;nbsp;&lt;div&gt;Analytics&lt;/div&gt;" style="rounded=1;whiteSpace=wrap;html=1;dashed=1;strokeColor=none;strokeWidth=2;fillColor=#FFFFFF;fontFamily=Helvetica;fontSize=14;fontColor=#FFB366;opacity=75;verticalAlign=top;fontStyle=1" parent="1" vertex="1">
          <mxGeometry x="410" y="190" width="140" height="260" as="geometry" />
        </mxCell>
        <mxCell id="2049" value="Data&lt;div&gt;Management&lt;/div&gt;" style="rounded=1;whiteSpace=wrap;html=1;dashed=1;strokeColor=none;strokeWidth=2;fillColor=#FFFFFF;fontFamily=Helvetica;fontSize=14;fontColor=#FFB366;opacity=75;verticalAlign=top;fontStyle=1" parent="1" vertex="1">
          <mxGeometry x="413" y="460" width="140" height="320" as="geometry" />
        </mxCell>
        <mxCell id="2050" value="SQL Reporting" style="verticalLabelPosition=bottom;html=1;verticalAlign=top;strokeColor=none;fillColor=#3399FF;shape=mxgraph.azure.sql_reporting;dashed=1;fontSize=14;fontColor=#004C99" parent="1" vertex="1">
          <mxGeometry x="460" y="258" width="40" height="50" as="geometry" />
        </mxCell>
        <mxCell id="2051" value="HDInsight" style="verticalLabelPosition=bottom;html=1;verticalAlign=top;strokeColor=none;fillColor=#3399FF;shape=mxgraph.azure.hdinsight;dashed=1;fontSize=14;fontColor=#004C99" parent="1" vertex="1">
          <mxGeometry x="458" y="355" width="50" height="50" as="geometry" />
        </mxCell>
        <mxCell id="2052" value="SQL Database" style="verticalLabelPosition=bottom;html=1;verticalAlign=top;strokeColor=none;fillColor=#3399FF;shape=mxgraph.azure.sql_database;dashed=1;fontFamily=Helvetica;fontSize=14;fontColor=#004C99" parent="1" vertex="1">
          <mxGeometry x="464" y="600" width="37.5" height="50" as="geometry" />
        </mxCell>
        <mxCell id="2053" value="Tables" style="verticalLabelPosition=bottom;html=1;verticalAlign=top;strokeColor=none;fillColor=#3399FF;shape=mxgraph.azure.storage_table;dashed=1;fontFamily=Helvetica;fontSize=14;fontColor=#004C99" parent="1" vertex="1">
          <mxGeometry x="458" y="689" width="50" height="45" as="geometry" />
        </mxCell>
        <mxCell id="2054" value="Blobs" style="verticalLabelPosition=bottom;html=1;verticalAlign=top;strokeColor=none;fillColor=#3399FF;shape=mxgraph.azure.storage_blob;dashed=1;fontFamily=Helvetica;fontSize=14;fontColor=#004C99" parent="1" vertex="1">
          <mxGeometry x="457" y="523" width="50" height="45" as="geometry" />
        </mxCell>
        <mxCell id="2055" value="Storage Management" style="rounded=1;whiteSpace=wrap;html=1;dashed=1;strokeColor=none;strokeWidth=2;fillColor=#FFFFFF;fontFamily=Helvetica;fontSize=14;fontColor=#FFB366;opacity=75;verticalAlign=top;fontStyle=1" parent="1" vertex="1">
          <mxGeometry x="594" y="240" width="140" height="280" as="geometry" />
        </mxCell>
        <mxCell id="2056" value="Storage Servers" style="verticalLabelPosition=bottom;html=1;verticalAlign=top;strokeColor=none;fillColor=#3399FF;shape=mxgraph.azure.server_rack;dashed=1;fontFamily=Helvetica;fontSize=14;fontColor=#004C99" parent="1" vertex="1">
          <mxGeometry x="639" y="316" width="50" height="50" as="geometry" />
        </mxCell>
        <mxCell id="2057" value="Database" style="verticalLabelPosition=bottom;html=1;verticalAlign=top;strokeColor=none;fillColor=#3399FF;shape=mxgraph.azure.database;dashed=1;fontFamily=Helvetica;fontSize=14;fontColor=#004C99" parent="1" vertex="1">
          <mxGeometry x="644" y="414" width="37.5" height="50" as="geometry" />
        </mxCell>
        <mxCell id="2058" value="Physical&lt;div&gt;Data Storage&lt;/div&gt;" style="verticalLabelPosition=bottom;html=1;verticalAlign=top;strokeColor=none;fillColor=#3399FF;shape=mxgraph.azure.vhd;dashed=1;fontFamily=Helvetica;fontSize=14;fontColor=#004C99" parent="1" vertex="1">
          <mxGeometry x="643" y="590" width="40" height="50" as="geometry" />
        </mxCell>
        <mxCell id="2059" value="Identity" style="rounded=1;whiteSpace=wrap;html=1;dashed=1;strokeColor=none;strokeWidth=2;fillColor=#FFFFFF;fontFamily=Helvetica;fontSize=14;fontColor=#FFB366;opacity=75;verticalAlign=top;fontStyle=1" parent="1" vertex="1">
          <mxGeometry x="773" y="196" width="140" height="134" as="geometry" />
        </mxCell>
        <mxCell id="2060" value="Windows Azure&amp;nbsp;&lt;div&gt;Active Directorry&lt;/div&gt;" style="verticalLabelPosition=bottom;html=1;verticalAlign=top;strokeColor=none;fillColor=#3399FF;shape=mxgraph.azure.azure_active_directory;dashed=1;fontFamily=Helvetica;fontSize=14;fontColor=#004C99" parent="1" vertex="1">
          <mxGeometry x="819" y="225" width="47.5" height="50" as="geometry" />
        </mxCell>
        <mxCell id="2061" value="Performance" style="rounded=1;whiteSpace=wrap;html=1;dashed=1;strokeColor=none;strokeWidth=2;fillColor=#FFFFFF;fontFamily=Helvetica;fontSize=14;fontColor=#FFB366;opacity=75;verticalAlign=top;fontStyle=1" parent="1" vertex="1">
          <mxGeometry x="774" y="341" width="140" height="199" as="geometry" />
        </mxCell>
        <mxCell id="2062" value="Caching" style="verticalLabelPosition=bottom;html=1;verticalAlign=top;strokeColor=none;fillColor=#3399FF;shape=mxgraph.azure.azure_cache;dashed=1;fontFamily=Helvetica;fontSize=14;fontColor=#004C99" parent="1" vertex="1">
          <mxGeometry x="821" y="376" width="45" height="50" as="geometry" />
        </mxCell>
        <mxCell id="2063" value="Content&amp;nbsp;&lt;div&gt;Delivery Network&lt;/div&gt;" style="verticalLabelPosition=bottom;html=1;verticalAlign=top;strokeColor=none;fillColor=#3399FF;shape=mxgraph.azure.content_delivery_network;dashed=1;fontFamily=Helvetica;fontSize=14;fontColor=#004C99" parent="1" vertex="1">
          <mxGeometry x="819" y="455" width="50" height="32.5" as="geometry" />
        </mxCell>
        <mxCell id="2064" value="Messaging" style="rounded=1;whiteSpace=wrap;html=1;dashed=1;strokeColor=none;strokeWidth=2;fillColor=#FFFFFF;fontFamily=Helvetica;fontSize=14;fontColor=#FFB366;opacity=75;verticalAlign=top;fontStyle=1" parent="1" vertex="1">
          <mxGeometry x="773" y="550" width="140" height="229" as="geometry" />
        </mxCell>
        <mxCell id="2065" value="Queues" style="verticalLabelPosition=bottom;html=1;verticalAlign=top;strokeColor=none;fillColor=#3399FF;shape=mxgraph.azure.queue_generic;dashed=1;fontFamily=Helvetica;fontSize=14;fontColor=#004C99" parent="1" vertex="1">
          <mxGeometry x="820" y="576" width="50" height="15" as="geometry" />
        </mxCell>
        <mxCell id="2066" value="Service Bus" style="verticalLabelPosition=bottom;html=1;verticalAlign=top;strokeColor=none;fillColor=#3399FF;shape=mxgraph.azure.service_bus;dashed=1;fontFamily=Helvetica;fontSize=14;fontColor=#004C99" parent="1" vertex="1">
          <mxGeometry x="824" y="624" width="45" height="50" as="geometry" />
        </mxCell>
        <mxCell id="2067" value="Media Services" style="verticalLabelPosition=bottom;html=1;verticalAlign=top;strokeColor=none;fillColor=#3399FF;shape=mxgraph.azure.media_service;dashed=1;fontFamily=Helvetica;fontSize=14;fontColor=#004C99" parent="1" vertex="1">
          <mxGeometry x="821" y="703" width="45" height="50" as="geometry" />
        </mxCell>
        <mxCell id="2068" value="Cloud&lt;div&gt;Services&lt;/div&gt;" style="rounded=1;whiteSpace=wrap;html=1;dashed=1;strokeColor=none;strokeWidth=2;fillColor=#FFFFFF;fontFamily=Helvetica;fontSize=14;fontColor=#FFB366;opacity=75;verticalAlign=top;fontStyle=1" parent="1" vertex="1">
          <mxGeometry x="233" y="397" width="140" height="223" as="geometry" />
        </mxCell>
        <mxCell id="2069" value="Cloud" style="verticalLabelPosition=bottom;html=1;verticalAlign=top;strokeColor=none;fillColor=#3399FF;shape=mxgraph.azure.cloud;dashed=1;fontSize=14;fontColor=#004C99" parent="1" vertex="1">
          <mxGeometry x="278" y="449" width="50" height="32.5" as="geometry" />
        </mxCell>
        <mxCell id="2070" value="Virtual Machine" style="verticalLabelPosition=bottom;html=1;verticalAlign=top;strokeColor=none;fillColor=#3399FF;shape=mxgraph.azure.virtual_machine;dashed=1;fontSize=14;fontColor=#004C99" parent="1" vertex="1">
          <mxGeometry x="278" y="536" width="50" height="40" as="geometry" />
        </mxCell>
        <mxCell id="2071" value="Web Dashboards" style="verticalLabelPosition=bottom;html=1;verticalAlign=top;strokeColor=none;fillColor=#3399FF;shape=mxgraph.azure.laptop;dashed=1;fontFamily=Helvetica;fontSize=14;fontColor=#004C99" parent="1" vertex="1">
          <mxGeometry x="998" y="301" width="50" height="30" as="geometry" />
        </mxCell>
        <mxCell id="2072" value="Certificates" style="verticalLabelPosition=bottom;html=1;verticalAlign=top;strokeColor=none;fillColor=#3399FF;shape=mxgraph.azure.certificate;dashed=1;fontFamily=Helvetica;fontSize=14;fontColor=#004C99" parent="1" vertex="1">
          <mxGeometry x="998" y="399" width="50" height="40" as="geometry" />
        </mxCell>
        <mxCell id="2073" value="Enterprise&lt;div&gt;Services&lt;/div&gt;" style="verticalLabelPosition=bottom;html=1;verticalAlign=top;strokeColor=none;fillColor=#3399FF;shape=mxgraph.azure.enterprise;dashed=1;fontFamily=Helvetica;fontSize=14;fontColor=#004C99" parent="1" vertex="1">
          <mxGeometry x="1008" y="518" width="30" height="50" as="geometry" />
        </mxCell>
        <mxCell id="2074" value="Seminars" style="verticalLabelPosition=bottom;html=1;verticalAlign=top;strokeColor=none;fillColor=#3399FF;shape=mxgraph.azure.user;dashed=1;fontFamily=Helvetica;fontSize=14;fontColor=#004C99" parent="1" vertex="1">
          <mxGeometry x="1001" y="630" width="47.5" height="50" as="geometry" />
        </mxCell>
        <mxCell id="2075" value="" style="arrow;html=1;endArrow=block;endFill=1;strokeColor=none;strokeWidth=4;fontFamily=Helvetica;fontSize=36;fontColor=#FFB366;fillColor=#FFB366;" parent="1" edge="1">
          <mxGeometry width="100" height="100" relative="1" as="geometry">
            <mxPoint x="167" y="283" as="sourcePoint" />
            <mxPoint x="247" y="283" as="targetPoint" />
          </mxGeometry>
        </mxCell>
        <mxCell id="2076" value="" style="arrow;html=1;endArrow=block;endFill=1;strokeColor=none;strokeWidth=4;fontFamily=Helvetica;fontSize=36;fontColor=#FFB366;fillColor=#FFB366;opacity=100" parent="1" edge="1">
          <mxGeometry width="100" height="100" relative="1" as="geometry">
            <mxPoint x="347" y="283" as="sourcePoint" />
            <mxPoint x="427" y="283" as="targetPoint" />
          </mxGeometry>
        </mxCell>
        <mxCell id="2077" value="" style="arrow;html=1;endArrow=block;endFill=1;strokeColor=none;strokeWidth=4;fontFamily=Helvetica;fontSize=36;fontColor=#FFB366;fillColor=#FFB366;" parent="1" edge="1">
          <mxGeometry width="100" height="100" relative="1" as="geometry">
            <mxPoint x="527" y="360" as="sourcePoint" />
            <mxPoint x="607" y="360" as="targetPoint" />
          </mxGeometry>
        </mxCell>
        <mxCell id="2078" value="" style="arrow;html=1;endArrow=block;endFill=1;strokeColor=none;strokeWidth=4;fontFamily=Helvetica;fontSize=36;fontColor=#FFB366;fillColor=#FFB366;" parent="1" edge="1">
          <mxGeometry width="100" height="100" relative="1" as="geometry">
            <mxPoint x="714" y="426" as="sourcePoint" />
            <mxPoint x="794" y="426" as="targetPoint" />
          </mxGeometry>
        </mxCell>
        <mxCell id="2079" value="" style="arrow;html=1;endArrow=block;endFill=1;strokeColor=none;strokeWidth=4;fontFamily=Helvetica;fontSize=36;fontColor=#FFB366;fillColor=#FFB366;" parent="1" edge="1">
          <mxGeometry width="100" height="100" relative="1" as="geometry">
            <mxPoint x="714" y="270" as="sourcePoint" />
            <mxPoint x="794" y="270" as="targetPoint" />
          </mxGeometry>
        </mxCell>
        <mxCell id="2080" value="" style="arrow;html=1;endArrow=block;endFill=1;strokeColor=none;strokeWidth=4;fontFamily=Helvetica;fontSize=36;fontColor=#FFB366;fillColor=#FFB366;" parent="1" edge="1">
          <mxGeometry width="100" height="100" relative="1" as="geometry">
            <mxPoint x="887" y="438" as="sourcePoint" />
            <mxPoint x="967" y="438" as="targetPoint" />
          </mxGeometry>
        </mxCell>
        <mxCell id="2081" value="" style="arrow;html=1;endArrow=block;endFill=1;strokeColor=none;strokeWidth=4;fontFamily=Helvetica;fontSize=36;fontColor=#FFB366;fillColor=#FFB366;" parent="1" edge="1">
          <mxGeometry width="100" height="100" relative="1" as="geometry">
            <mxPoint x="894" y="664" as="sourcePoint" />
            <mxPoint x="974" y="664" as="targetPoint" />
          </mxGeometry>
        </mxCell>
        <mxCell id="2082" value="" style="arrow;html=1;endArrow=block;endFill=1;strokeColor=none;strokeWidth=4;fontFamily=Helvetica;fontSize=36;fontColor=#FFB366;fillColor=#FFB366;" parent="1" edge="1">
          <mxGeometry width="100" height="100" relative="1" as="geometry">
            <mxPoint x="707" y="639" as="sourcePoint" />
            <mxPoint x="787" y="639" as="targetPoint" />
          </mxGeometry>
        </mxCell>
        <mxCell id="2083" value="" style="arrow;html=1;endArrow=block;endFill=1;strokeColor=none;strokeWidth=4;fontFamily=Helvetica;fontSize=36;fontColor=#FFB366;fillColor=#FFB366;" parent="1" edge="1">
          <mxGeometry width="100" height="100" relative="1" as="geometry">
            <mxPoint x="534" y="624" as="sourcePoint" />
            <mxPoint x="614" y="624" as="targetPoint" />
          </mxGeometry>
        </mxCell>
        <mxCell id="2084" value="" style="arrow;html=1;endArrow=block;endFill=1;strokeColor=none;strokeWidth=4;fontFamily=Helvetica;fontSize=36;fontColor=#FFB366;fillColor=#FFB366;" parent="1" edge="1">
          <mxGeometry width="100" height="100" relative="1" as="geometry">
            <mxPoint x="347" y="536" as="sourcePoint" />
            <mxPoint x="427" y="536" as="targetPoint" />
          </mxGeometry>
        </mxCell>
        <mxCell id="2085" value="" style="arrow;html=1;endArrow=block;endFill=1;strokeColor=none;strokeWidth=4;fontFamily=Helvetica;fontSize=36;fontColor=#FFB366;fillColor=#FFB366;" parent="1" edge="1">
          <mxGeometry width="100" height="100" relative="1" as="geometry">
            <mxPoint x="174" y="688" as="sourcePoint" />
            <mxPoint x="254" y="688" as="targetPoint" />
          </mxGeometry>
        </mxCell>
        <mxCell id="pgp2nBGtSMHjbhWHDTlj-2085" style="edgeStyle=orthogonalEdgeStyle;rounded=0;orthogonalLoop=1;jettySize=auto;html=1;exitX=0.03;exitY=0.02;exitDx=0;exitDy=0;exitPerimeter=0;entryX=0.274;entryY=0.144;entryDx=0;entryDy=0;entryPerimeter=0;" parent="1" source="2038" target="2038" edge="1">
          <mxGeometry relative="1" as="geometry" />
        </mxCell>
        <mxCell id="pgp2nBGtSMHjbhWHDTlj-2087" value="" style="shape=image;verticalLabelPosition=bottom;labelBackgroundColor=#ffffff;verticalAlign=top;aspect=fixed;imageAspect=0;image=data:image/svg+xml,PHN2ZyB4bWxuczpjYz0iaHR0cDovL2NyZWF0aXZlY29tbW9ucy5vcmcvbnMjIiB4bWxuczpkYz0iaHR0cDovL3B1cmwub3JnL2RjL2VsZW1lbnRzLzEuMS8iIHhtbG5zOmlua3NjYXBlPSJodHRwOi8vd3d3Lmlua3NjYXBlLm9yZy9uYW1lc3BhY2VzL2lua3NjYXBlIiB4bWxuczpyZGY9Imh0dHA6Ly93d3cudzMub3JnLzE5OTkvMDIvMjItcmRmLXN5bnRheC1ucyMiIHhtbG5zOnNvZGlwb2RpPSJodHRwOi8vc29kaXBvZGkuc291cmNlZm9yZ2UubmV0L0RURC9zb2RpcG9kaS0wLmR0ZCIgeG1sbnM6c3ZnPSJodHRwOi8vd3d3LnczLm9yZy8yMDAwL3N2ZyIgeG1sbnM9Imh0dHA6Ly93d3cudzMub3JnLzIwMDAvc3ZnIiB4bWxuczp4bGluaz0iaHR0cDovL3d3dy53My5vcmcvMTk5OS94bGluayIgdmVyc2lvbj0iMS4xIiBpZD0ic3ZnMTAwMzAzIiBpbmtzY2FwZTp2ZXJzaW9uPSIwLjkyLjMgKDI0MDU1NDYsIDIwMTgtMDMtMTEpIiBzb2RpcG9kaTpkb2NuYW1lPSJnZW5lcmljX2RhdGFiYXNlX2JsdWUuc3ZnIiB4PSIwcHgiIHk9IjBweCIgdmlld0JveD0iMCAwIDM2Ljc5IDQ3LjY5IiBzdHlsZT0iZW5hYmxlLWJhY2tncm91bmQ6bmV3IDAgMCAzNi43OSA0Ny42OTsiIHhtbDpzcGFjZT0icHJlc2VydmUiPiYjeGE7PHNvZGlwb2RpOm5hbWVkdmlldyBib3JkZXJjb2xvcj0iIzY2NjY2NiIgYm9yZGVyb3BhY2l0eT0iMSIgZml0LW1hcmdpbi1ib3R0b209IjAiIGZpdC1tYXJnaW4tbGVmdD0iMCIgZml0LW1hcmdpbi1yaWdodD0iMCIgZml0LW1hcmdpbi10b3A9IjAiIGdyaWR0b2xlcmFuY2U9IjEwIiBndWlkZXRvbGVyYW5jZT0iMTAiIGlkPSJuYW1lZHZpZXcxMDAzMDUiIGlua3NjYXBlOmN1cnJlbnQtbGF5ZXI9InN2ZzEwMDMwMyIgaW5rc2NhcGU6Y3g9IjI0LjUzMDAwMSIgaW5rc2NhcGU6Y3k9IjMxLjc5MTY2OSIgaW5rc2NhcGU6cGFnZW9wYWNpdHk9IjAiIGlua3NjYXBlOnBhZ2VzaGFkb3c9IjIiIGlua3NjYXBlOndpbmRvdy1oZWlnaHQ9IjEwMTciIGlua3NjYXBlOndpbmRvdy1tYXhpbWl6ZWQ9IjEiIGlua3NjYXBlOndpbmRvdy13aWR0aD0iMTkyMCIgaW5rc2NhcGU6d2luZG93LXg9Ii04IiBpbmtzY2FwZTp3aW5kb3cteT0iLTgiIGlua3NjYXBlOnpvb209IjEzLjIxODQ4MSIgb2JqZWN0dG9sZXJhbmNlPSIxMCIgcGFnZWNvbG9yPSIjZmZmZmZmIiBzaG93Z3JpZD0iZmFsc2UiPiYjeGE7CTwvc29kaXBvZGk6bmFtZWR2aWV3PiYjeGE7PGcgaWQ9ImcxMDAzMDEiIHRyYW5zZm9ybT0idHJhbnNsYXRlKC0wLjc1LC0wLjc0NSkiPiYjeGE7CTx0aXRsZSBpZD0idGl0bGUxMDAyNjkiPlBhZ2UtMTwvdGl0bGU+JiN4YTsJPGcgaWQ9Imdyb3VwMzQ5My0xIiB0cmFuc2Zvcm09InRyYW5zbGF0ZSgxLjUsLTEuNSkiPiYjeGE7CQk8dGl0bGUgaWQ9InRpdGxlMTAwMjcxIj5HZW5lcmljIERhdGFiYXNlIChCbHVlKTwvdGl0bGU+JiN4YTsJCTxnIGlkPSJncm91cDM0OTQtMiI+JiN4YTsJCQk8dGl0bGUgaWQ9InRpdGxlMTAwMjczIj5nMTQ1MDwvdGl0bGU+JiN4YTsJCQk8ZyBpZD0ic2hhcGUzNDk1LTMiPiYjeGE7CQkJCTx0aXRsZSBpZD0idGl0bGUxMDAyNzUiPnBhdGgxNDQyPC90aXRsZT4mI3hhOwkJCQk8cGF0aCBpZD0icGF0aDEwMDI3NyIgaW5rc2NhcGU6Y29ubmVjdG9yLWN1cnZhdHVyZT0iMCIgc3R5bGU9ImZpbGw6I0ZGRkZGRjsiIGQ9Ik0zMS43OSw5TDIxLjQ0LDkuMDlMMCw5LjI3djMzLjM3ICAgICAgYzAsMy40Miw3LjUsNi4zNywxNy4yNSw2LjU1aDAuMzdjMS4zMiwwLDIuNi0wLjA3LDMuODItMC4xOWMzLjU3LTAuMjIsNy4wOC0xLjA3LDEwLjM1LTIuNTNjMi4xOS0xLjEsMy40Ni0yLjQ0LDMuNDYtMy44M1Y4Ljk3ICAgICAgTDMxLjc5LDl6Ii8+JiN4YTsJCQk8L2c+JiN4YTsJCQk8ZyBpZD0ic2hhcGUzNDk2LTUiIHRyYW5zZm9ybT0idHJhbnNsYXRlKDIxLjQ0MjUsLTAuMjEpIj4mI3hhOwkJCQk8dGl0bGUgaWQ9InRpdGxlMTAwMjgwIj5wYXRoMTQ0NDwvdGl0bGU+JiN4YTsJCQkJPHBhdGggaWQ9InBhdGgxMDAyODIiIGlua3NjYXBlOmNvbm5lY3Rvci1jdXJ2YXR1cmU9IjAiIHN0eWxlPSJmaWxsOiNFNUU1RTU7IiBkPSJNMTAuMzUsOS4yMXYzNy40NSAgICAgIEM3LjA4LDQ4LjEyLDMuNTcsNDguOTcsMCw0OS4xOVY5LjNMMTAuMzUsOS4yMXoiLz4mI3hhOwkJCTwvZz4mI3hhOwkJCTxnIGlkPSJzaGFwZTM0OTctNyI+JiN4YTsJCQkJPHRpdGxlIGlkPSJ0aXRsZTEwMDI4NSI+cGF0aDE0NDY8L3RpdGxlPiYjeGE7CQkJCTxwYXRoIGlkPSJwYXRoMTAwMjg3IiBpbmtzY2FwZTpjb25uZWN0b3ItY3VydmF0dXJlPSIwIiBzdHlsZT0iZmlsbDpub25lOyIgZD0iTTAsOS4yN3YzMy4zN2MwLDMuNDIsNy40Niw2LjM3LDE3LjI1LDYuNTVoMC4zNyAgICAgIGM5Ljk3LTAuMTMsMTcuNjMtMy4xLDE3LjYzLTYuNTVWOC45N0wwLDkuMjd6Ii8+JiN4YTsJCQkJJiN4YTsJCQkJCTxwYXRoIGlkPSJwYXRoMTAwMjg5IiBpbmtzY2FwZTpjb25uZWN0b3ItY3VydmF0dXJlPSIwIiBzdHlsZT0iZmlsbDpub25lO3N0cm9rZTojNTU2QThBO3N0cm9rZS13aWR0aDoxLjU7c3Ryb2tlLW1pdGVybGltaXQ6MzsiIGQ9IiAgICAgIE0wLDkuMjd2MzMuMzdjMCwzLjQyLDcuNDYsNi4zNywxNy4yNSw2LjU1aDAuMzdjOS45Ny0wLjEzLDE3LjYzLTMuMSwxNy42My02LjU1VjguOTciLz4mI3hhOwkJCTwvZz4mI3hhOwkJCTxnIGlkPSJzaGFwZTM0OTgtMTAiIHRyYW5zZm9ybT0idHJhbnNsYXRlKDAuMDQ1LC0zMy40NjUpIj4mI3hhOwkJCQk8dGl0bGUgaWQ9InRpdGxlMTAwMjkyIj5wYXRoMTQ0ODwvdGl0bGU+JiN4YTsJCQkJPHBhdGggaWQ9InBhdGgxMDAyOTQiIGlua3NjYXBlOmNvbm5lY3Rvci1jdXJ2YXR1cmU9IjAiIHN0eWxlPSJmaWxsOiM1NUQyRjY7IiBkPSJNMzUuMjUsNDIuODJjMCwzLjUyLTcuODksNi4zNy0xNy42Myw2LjM3ICAgICAgQzcuODksNDkuMTksMCw0Ni4zNCwwLDQyLjgyYzAtMy41MSw4LjEyLTYuMzYsMTcuODYtNi4zNkMyNy41OSwzNi40NiwzNS4yNSwzOS4zMSwzNS4yNSw0Mi44MkwzNS4yNSw0Mi44MnoiLz4mI3hhOwkJCQkmI3hhOwkJCQkJPHBhdGggaWQ9InBhdGgxMDAyOTYiIGlua3NjYXBlOmNvbm5lY3Rvci1jdXJ2YXR1cmU9IjAiIHN0eWxlPSJmaWxsOm5vbmU7c3Ryb2tlOiM1NTZBOEE7c3Ryb2tlLXdpZHRoOjEuNTtzdHJva2UtbWl0ZXJsaW1pdDozOyIgZD0iICAgICAgTTM1LjI1LDQyLjgyYzAsMy41Mi03Ljg5LDYuMzctMTcuNjMsNi4zN0M3Ljg5LDQ5LjE5LDAsNDYuMzQsMCw0Mi44MmMwLTMuNTEsOC4xMi02LjM2LDE3Ljg2LTYuMzYgICAgICBDMjcuNTksMzYuNDYsMzUuMjUsMzkuMzEsMzUuMjUsNDIuODIiLz4mI3hhOwkJCTwvZz4mI3hhOwkJPC9nPiYjeGE7CTwvZz4mI3hhOzwvZz4mI3hhOzwvc3ZnPg==;" parent="1" vertex="1">
          <mxGeometry x="510" y="510" width="37" height="48" as="geometry" />
        </mxCell>
        <mxCell id="pgp2nBGtSMHjbhWHDTlj-2088" value="" style="shape=image;verticalLabelPosition=bottom;labelBackgroundColor=#ffffff;verticalAlign=top;aspect=fixed;imageAspect=0;image=data:image/svg+xml,PHN2ZyB4bWxuczpjYz0iaHR0cDovL2NyZWF0aXZlY29tbW9ucy5vcmcvbnMjIiB4bWxuczpkYz0iaHR0cDovL3B1cmwub3JnL2RjL2VsZW1lbnRzLzEuMS8iIHhtbG5zOmlua3NjYXBlPSJodHRwOi8vd3d3Lmlua3NjYXBlLm9yZy9uYW1lc3BhY2VzL2lua3NjYXBlIiB4bWxuczpyZGY9Imh0dHA6Ly93d3cudzMub3JnLzE5OTkvMDIvMjItcmRmLXN5bnRheC1ucyMiIHhtbG5zOnNvZGlwb2RpPSJodHRwOi8vc29kaXBvZGkuc291cmNlZm9yZ2UubmV0L0RURC9zb2RpcG9kaS0wLmR0ZCIgeG1sbnM6c3ZnPSJodHRwOi8vd3d3LnczLm9yZy8yMDAwL3N2ZyIgeG1sbnM9Imh0dHA6Ly93d3cudzMub3JnLzIwMDAvc3ZnIiB4bWxuczp4bGluaz0iaHR0cDovL3d3dy53My5vcmcvMTk5OS94bGluayIgdmVyc2lvbj0iMS4xIiBpZD0ic3ZnMTAyNDE4IiBpbmtzY2FwZTp2ZXJzaW9uPSIwLjkyLjMgKDI0MDU1NDYsIDIwMTgtMDMtMTEpIiBzb2RpcG9kaTpkb2NuYW1lPSJvcmFjbGVfZGF0YWJhc2Uuc3ZnIiB4PSIwcHgiIHk9IjBweCIgdmlld0JveD0iMCAwIDMwLjYyIDM0LjkzIiBzdHlsZT0iZW5hYmxlLWJhY2tncm91bmQ6bmV3IDAgMCAzMC42MiAzNC45MzsiIHhtbDpzcGFjZT0icHJlc2VydmUiPiYjeGE7PHNvZGlwb2RpOm5hbWVkdmlldyBib3JkZXJjb2xvcj0iIzY2NjY2NiIgYm9yZGVyb3BhY2l0eT0iMSIgZml0LW1hcmdpbi1ib3R0b209IjAiIGZpdC1tYXJnaW4tbGVmdD0iMCIgZml0LW1hcmdpbi1yaWdodD0iMCIgZml0LW1hcmdpbi10b3A9IjAiIGdyaWR0b2xlcmFuY2U9IjEwIiBndWlkZXRvbGVyYW5jZT0iMTAiIGlkPSJuYW1lZHZpZXcxMDI0MjAiIGlua3NjYXBlOmN1cnJlbnQtbGF5ZXI9InN2ZzEwMjQxOCIgaW5rc2NhcGU6Y3g9IjIwLjQxMzUzMyIgaW5rc2NhcGU6Y3k9IjIzLjI4Njg2NiIgaW5rc2NhcGU6cGFnZW9wYWNpdHk9IjAiIGlua3NjYXBlOnBhZ2VzaGFkb3c9IjIiIGlua3NjYXBlOndpbmRvdy1oZWlnaHQ9IjEwMTciIGlua3NjYXBlOndpbmRvdy1tYXhpbWl6ZWQ9IjEiIGlua3NjYXBlOndpbmRvdy13aWR0aD0iMTkyMCIgaW5rc2NhcGU6d2luZG93LXg9Ii04IiBpbmtzY2FwZTp3aW5kb3cteT0iLTgiIGlua3NjYXBlOnpvb209IjE2LjgyODE1NiIgb2JqZWN0dG9sZXJhbmNlPSIxMCIgcGFnZWNvbG9yPSIjZmZmZmZmIiBzaG93Z3JpZD0iZmFsc2UiPiYjeGE7CTwvc29kaXBvZGk6bmFtZWR2aWV3PiYjeGE7PGcgaWQ9ImcxMDI0MTYiIHRyYW5zZm9ybT0idHJhbnNsYXRlKC0xLjg1NDU3OCwtMS44NTEwNSkiPiYjeGE7CTx0aXRsZSBpZD0idGl0bGUxMDIzODEiPlBhZ2UtMTwvdGl0bGU+JiN4YTsJPGcgaWQ9Imdyb3VwMzYxOS0xIiB0cmFuc2Zvcm09InRyYW5zbGF0ZSgxLjg1NDU1LC0xLjg1NDU1KSI+JiN4YTsJCTx0aXRsZSBpZD0idGl0bGUxMDIzODMiPk9yYWNsZSBEYXRhYmFzZTwvdGl0bGU+JiN4YTsJCTxnIGlkPSJzaGFwZTM2MjAtMiIgdHJhbnNmb3JtPSJ0cmFuc2xhdGUoMCwtMC4xMTA1NDMpIj4mI3hhOwkJCTx0aXRsZSBpZD0idGl0bGUxMDIzODUiPlNoZWV0LjM2MjA8L3RpdGxlPiYjeGE7CQkJPHBhdGggaWQ9InBhdGgxMDIzODciIGlua3NjYXBlOmNvbm5lY3Rvci1jdXJ2YXR1cmU9IjAiIHN0eWxlPSJmaWxsOiNFQjIyMjc7IiBkPSJNMTUuMjUsOS4yNEM2Ljg1LDkuMjQsMCw4LjAyLDAsNi40N3YyOS40MSAgICAgYzAsMS41NCw2Ljg1LDIuNzYsMTUuMjUsMi43NmM4LjQxLDAsMTUuMjYtMS4yMiwxNS4yNi0yLjc2VjYuNDdDMzAuNjIsOC4wMiwyMy43Nyw5LjI0LDE1LjI1LDkuMjR6Ii8+JiN4YTsJCTwvZz4mI3hhOwkJPGcgaWQ9InNoYXBlMzYyMS00Ij4mI3hhOwkJCTx0aXRsZSBpZD0idGl0bGUxMDIzOTAiPlNoZWV0LjM2MjE8L3RpdGxlPiYjeGE7CQkJPHBhdGggaWQ9InBhdGgxMDIzOTIiIGlua3NjYXBlOmNvbm5lY3Rvci1jdXJ2YXR1cmU9IjAiIHN0eWxlPSJmaWxsOiNEODIzMjg7IiBkPSJNMCw2LjQ3djI5LjQxYzAsMS41NCw2Ljg1LDIuNzYsMTUuMjUsMi43NiAgICAgVjkuMjRDNi44NSw5LjEzLDAsNy45MSwwLDYuNDd6Ii8+JiN4YTsJCTwvZz4mI3hhOwkJPGcgaWQ9InNoYXBlMzYyMi02IiB0cmFuc2Zvcm09InRyYW5zbGF0ZSgyOC41MiwtMS40MzcwNikiPiYjeGE7CQkJPHRpdGxlIGlkPSJ0aXRsZTEwMjM5NSI+U2hlZXQuMzYyMjwvdGl0bGU+JiN4YTsJCQk8cGF0aCBpZD0icGF0aDEwMjM5NyIgaW5rc2NhcGU6Y29ubmVjdG9yLWN1cnZhdHVyZT0iMCIgc3R5bGU9ImZpbGw6I0Q4MjMyODsiIGQ9Ik0wLDkuMjR2MjkuNGMxLjMzLTAuNDQsMi4xLTAuODgsMi4xLTEuMzNWNy45MSAgICAgQzIuMSw4LjM1LDEuMzMsOC45LDAsOS4yNHoiLz4mI3hhOwkJPC9nPiYjeGE7CQk8ZyBpZD0ic2hhcGUzNjIzLTgiIHRyYW5zZm9ybT0idHJhbnNsYXRlKDAuMTEwNTQzLC0yOS40MDQ0KSI+JiN4YTsJCQk8dGl0bGUgaWQ9InRpdGxlMTAyNDAwIj5TaGVldC4zNjIzPC90aXRsZT4mI3hhOwkJCTxwYXRoIGlkPSJwYXRoMTAyNDAyIiBpbmtzY2FwZTpjb25uZWN0b3ItY3VydmF0dXJlPSIwIiBzdHlsZT0iZmlsbDojQjkyMzI3OyIgZD0iTTMwLjUxLDM1Ljg4YzAsMS41NC02Ljg1LDIuNzYtMTUuMjYsMi43NiAgICAgQzYuODUsMzguNjQsMCwzNy40MiwwLDM1Ljg4YzAtMS41NSw2Ljg1LTIuNzcsMTUuMjUtMi43N0MyMy42NiwzMy4xMSwzMC41MSwzNC4zMywzMC41MSwzNS44OHoiLz4mI3hhOwkJPC9nPiYjeGE7CQk8ZyBpZD0ic2hhcGUzNjI0LTEwIiB0cmFuc2Zvcm09InRyYW5zbGF0ZSgwLC04LjczMjg4KSI+JiN4YTsJCQk8dGl0bGUgaWQ9InRpdGxlMTAyNDA1Ij5TaGVldC4zNjI0PC90aXRsZT4mI3hhOwkJCTxwYXRoIGlkPSJwYXRoMTAyNDA3IiBpbmtzY2FwZTpjb25uZWN0b3ItY3VydmF0dXJlPSIwIiBzdHlsZT0iZmlsbDojOUExQzIxOyIgZD0iTTAsMzMuNjdjMCwxLjU0LDYuODUsMi43NiwxNS4yNSwyLjc2ICAgICBjOC40MSwwLDE1LjI2LTEuMjIsMTUuMjYtMi43NnYyLjIxYzAsMS41NC02Ljg1LDIuNzYtMTUuMjYsMi43NkM2Ljg1LDM4LjY0LDAsMzcuNDIsMCwzNS44OFYzMy42N3oiLz4mI3hhOwkJPC9nPiYjeGE7CQk8ZyBpZD0ic2hhcGUzNjI1LTEyIiB0cmFuc2Zvcm09InRyYW5zbGF0ZSgwLjExMDU0MywtMTguNDYwNikiPiYjeGE7CQkJPHRpdGxlIGlkPSJ0aXRsZTEwMjQxMCI+U2hlZXQuMzYyNTwvdGl0bGU+JiN4YTsJCQk8cGF0aCBpZD0icGF0aDEwMjQxMiIgaW5rc2NhcGU6Y29ubmVjdG9yLWN1cnZhdHVyZT0iMCIgc3R5bGU9ImZpbGw6IzlBMUMyMTsiIGQ9Ik0zMC41MSwzMy42N2MwLDEuNTQtNi44NSwyLjc2LTE1LjI2LDIuNzYgICAgIEM2Ljg1LDM2LjQzLDAsMzUuMjEsMCwzMy42N3YyLjIxYzAsMS41NCw2Ljg1LDIuNzYsMTUuMjUsMi43NmM4LjQxLDAsMTUuMjYtMS4yMiwxNS4yNi0yLjc2VjMzLjY3eiIvPiYjeGE7CQk8L2c+JiN4YTsJPC9nPiYjeGE7PC9nPiYjeGE7PC9zdmc+;" parent="1" vertex="1">
          <mxGeometry x="510" y="520" width="31" height="35" as="geometry" />
        </mxCell>
        <mxCell id="pgp2nBGtSMHjbhWHDTlj-2089" value="" style="shape=image;verticalLabelPosition=bottom;labelBackgroundColor=#ffffff;verticalAlign=top;aspect=fixed;imageAspect=0;image=data:image/svg+xml,PHN2ZyB4bWxuczpjYz0iaHR0cDovL2NyZWF0aXZlY29tbW9ucy5vcmcvbnMjIiB4bWxuczpkYz0iaHR0cDovL3B1cmwub3JnL2RjL2VsZW1lbnRzLzEuMS8iIHhtbG5zOmlua3NjYXBlPSJodHRwOi8vd3d3Lmlua3NjYXBlLm9yZy9uYW1lc3BhY2VzL2lua3NjYXBlIiB4bWxuczpyZGY9Imh0dHA6Ly93d3cudzMub3JnLzE5OTkvMDIvMjItcmRmLXN5bnRheC1ucyMiIHhtbG5zOnNvZGlwb2RpPSJodHRwOi8vc29kaXBvZGkuc291cmNlZm9yZ2UubmV0L0RURC9zb2RpcG9kaS0wLmR0ZCIgeG1sbnM6c3ZnPSJodHRwOi8vd3d3LnczLm9yZy8yMDAwL3N2ZyIgeG1sbnM9Imh0dHA6Ly93d3cudzMub3JnLzIwMDAvc3ZnIiB4bWxuczp4bGluaz0iaHR0cDovL3d3dy53My5vcmcvMTk5OS94bGluayIgdmVyc2lvbj0iMS4xIiBpZD0ic3ZnMTA3MDkzIiBpbmtzY2FwZTp2ZXJzaW9uPSIwLjkyLjMgKDI0MDU1NDYsIDIwMTgtMDMtMTEpIiBzb2RpcG9kaTpkb2NuYW1lPSJzcWxfc2VydmVyX3JlcG9ydGluZy5zdmciIHg9IjBweCIgeT0iMHB4IiB2aWV3Qm94PSIwIDAgNDggMzguOTgiIHN0eWxlPSJlbmFibGUtYmFja2dyb3VuZDpuZXcgMCAwIDQ4IDM4Ljk4OyIgeG1sOnNwYWNlPSJwcmVzZXJ2ZSI+JiN4YTs8c29kaXBvZGk6bmFtZWR2aWV3IGJvcmRlcmNvbG9yPSIjNjY2NjY2IiBib3JkZXJvcGFjaXR5PSIxIiBmaXQtbWFyZ2luLWJvdHRvbT0iMCIgZml0LW1hcmdpbi1sZWZ0PSIwIiBmaXQtbWFyZ2luLXJpZ2h0PSIwIiBmaXQtbWFyZ2luLXRvcD0iMCIgZ3JpZHRvbGVyYW5jZT0iMTAiIGd1aWRldG9sZXJhbmNlPSIxMCIgaWQ9Im5hbWVkdmlldzEwNzA5NSIgaW5rc2NhcGU6Y3VycmVudC1sYXllcj0ic3ZnMTA3MDkzIiBpbmtzY2FwZTpjeD0iMzEuOTgyNjA2IiBpbmtzY2FwZTpjeT0iMjUuOTcwMTg4IiBpbmtzY2FwZTpwYWdlb3BhY2l0eT0iMCIgaW5rc2NhcGU6cGFnZXNoYWRvdz0iMiIgaW5rc2NhcGU6d2luZG93LWhlaWdodD0iMTAxNyIgaW5rc2NhcGU6d2luZG93LW1heGltaXplZD0iMSIgaW5rc2NhcGU6d2luZG93LXdpZHRoPSIxOTIwIiBpbmtzY2FwZTp3aW5kb3cteD0iLTgiIGlua3NjYXBlOndpbmRvdy15PSItOCIgaW5rc2NhcGU6em9vbT0iMTYuMDUyMzg4IiBvYmplY3R0b2xlcmFuY2U9IjEwIiBwYWdlY29sb3I9IiNmZmZmZmYiIHNob3dncmlkPSJmYWxzZSI+JiN4YTsJPC9zb2RpcG9kaTpuYW1lZHZpZXc+JiN4YTs8ZyBpZD0iZzEwNzA5MSIgdHJhbnNmb3JtPSJ0cmFuc2xhdGUoLTAuNzc2NTgxMjcsLTAuNzUyNTE0MjUpIj4mI3hhOwk8dGl0bGUgaWQ9InRpdGxlMTA2OTkwIj5QYWdlLTE8L3RpdGxlPiYjeGE7CTxnIGlkPSJncm91cDM1NjItMSIgdHJhbnNmb3JtPSJ0cmFuc2xhdGUoNi45ODY5NywtMS42MTY5NykiPiYjeGE7CQk8dGl0bGUgaWQ9InRpdGxlMTA2OTkyIj5TUUwgU2VydmVyIFJlcG9ydGluZzwvdGl0bGU+JiN4YTsJCTxnIGlkPSJncm91cDM1NjMtMiIgdHJhbnNmb3JtPSJ0cmFuc2xhdGUoMCwtNC41Mzc1KSI+JiN4YTsJCQk8dGl0bGUgaWQ9InRpdGxlMTA2OTk0Ij5nNzU4MzwvdGl0bGU+JiN4YTsJCQk8ZyBpZD0ic2hhcGUzNTY0LTMiIHRyYW5zZm9ybT0idHJhbnNsYXRlKDAuMDE1LC0wLjg2MjUpIj4mI3hhOwkJCQk8dGl0bGUgaWQ9InRpdGxlMTA2OTk2Ij5wYXRoNzU1OTwvdGl0bGU+JiN4YTsJCQkJPHBhdGggaWQ9InBhdGgxMDY5OTgiIGlua3NjYXBlOmNvbm5lY3Rvci1jdXJ2YXR1cmU9IjAiIHN0eWxlPSJmaWxsOiNGRkZGRkY7IiBkPSJNMjYuNSwxNC4wM2M3LjMsNy4zMiw3LjMsMTkuMTYsMCwyNi40OCAgICAgIEMxOC44Niw0Ny41LDcsNDYuOTcsMC4wMSwzOS4zM0MtNi41NCwzMi4xNy02LjU1LDIxLjIsMCwxNC4wM0M3LjMyLDYuNzIsMTkuMTgsNi43MiwyNi41LDE0LjAzeiIvPiYjeGE7CQkJPC9nPiYjeGE7CQkJPGcgaWQ9InNoYXBlMzU2NS01IiB0cmFuc2Zvcm09InRyYW5zbGF0ZSgwLjAzLC0wLjc2NSkiPiYjeGE7CQkJCTx0aXRsZSBpZD0idGl0bGUxMDcwMDEiPnBhdGg3NTYxPC90aXRsZT4mI3hhOwkJCQk8cGF0aCBpZD0icGF0aDEwNzAwMyIgaW5rc2NhcGU6Y29ubmVjdG9yLWN1cnZhdHVyZT0iMCIgc3R5bGU9ImZpbGw6IzgwREVGOTtmaWxsLW9wYWNpdHk6MC4zNTsiIGQ9Ik0yNi42OCwxMy44NCAgICAgIGM3LjM2LDcuMzcsNy4zNiwxOS4zLDAsMjYuNjdMMCwxMy44NUM3LjM2LDYuNDgsMTkuMzEsNi40NywyNi42OCwxMy44NEMyNi42OCwxMy44NCwyNi42OCwxMy44NCwyNi42OCwxMy44NHoiLz4mI3hhOwkJCTwvZz4mI3hhOwkJCTxnIGlkPSJzaGFwZTM1NjYtNyIgdHJhbnNmb3JtPSJ0cmFuc2xhdGUoMCwtMC44MzQyNDkpIj4mI3hhOwkJCQk8dGl0bGUgaWQ9InRpdGxlMTA3MDA2Ij5wYXRoNzU2MzwvdGl0bGU+JiN4YTsJCQkJJiN4YTsJCQkJCTxwYXRoIGlkPSJwYXRoMTA3MDA4IiBpbmtzY2FwZTpjb25uZWN0b3ItY3VydmF0dXJlPSIwIiBzdHlsZT0iZmlsbDpub25lO3N0cm9rZTojNTU2QThBO3N0cm9rZS13aWR0aDoxLjU7c3Ryb2tlLW1pdGVybGltaXQ6MzsiIGQ9IiAgICAgIE0yNi41MywxMy45OGM3LjMyLDcuMzIsNy4zMiwxOS4xOSwwLDI2LjUyYzAsMCwwLDAsMCwwYy03LjMzLDcuMzEtMTkuMjEsNy4zLTI2LjUyLTAuMDRjLTcuMy03LjMyLTcuMy0xOS4xNS0wLjAxLTI2LjQ3ICAgICAgYzcuMzItNy4zMywxOS4xOS03LjM0LDI2LjUyLTAuMDJDMjYuNTIsMTMuOTcsMjYuNTMsMTMuOTgsMjYuNTMsMTMuOTh6Ii8+JiN4YTsJCQk8L2c+JiN4YTsJCQk8ZyBpZD0ic2hhcGUzNTY3LTkiIHRyYW5zZm9ybT0idHJhbnNsYXRlKDIuNzksLTAuMDIyNSkiPiYjeGE7CQkJCTx0aXRsZSBpZD0idGl0bGUxMDcwMTEiPnBhdGg3NTY1PC90aXRsZT4mI3hhOwkJCQk8cGF0aCBpZD0icGF0aDEwNzAxMyIgaW5rc2NhcGU6Y29ubmVjdG9yLWN1cnZhdHVyZT0iMCIgc3R5bGU9ImZpbGw6IzAwNzJDNjsiIGQ9Ik0xOS44NSwxNi41N3YyMC4xOSAgICAgIGMwLDEuNjYtNC40NSwzLjc1LTkuOTMsMy43NUM0LjQ0LDQwLjUxLDAsMzguNDIsMCwzNi43NmMwLTAuMTcsMC0yMC4xOSwwLTIwLjE5SDE5Ljg1eiIvPiYjeGE7CQkJPC9nPiYjeGE7CQkJPGcgaWQ9Imdyb3VwMzU2OC0xMSIgdHJhbnNmb3JtPSJ0cmFuc2xhdGUoNS42MTc1KSI+JiN4YTsJCQkJPHRpdGxlIGlkPSJ0aXRsZTEwNzAxNiI+Zzc1NzU8L3RpdGxlPiYjeGE7CQkJCTxnIGlkPSJzaGFwZTM1NjktMTIiIHRyYW5zZm9ybT0idHJhbnNsYXRlKDAsLTguNTY1KSI+JiN4YTsJCQkJCTx0aXRsZSBpZD0idGl0bGUxMDcwMTgiPnBhdGg3NTY3PC90aXRsZT4mI3hhOwkJCQkJPHBhdGggaWQ9InBhdGgxMDcwMjAiIGlua3NjYXBlOmNvbm5lY3Rvci1jdXJ2YXR1cmU9IjAiIHN0eWxlPSJmaWxsOiNGRkZGRkY7IiBkPSJNNC4xNSwzOC42MWMwLjAyLDAuNTUtMC4yMiwxLjA3LTAuNjYsMS40ICAgICAgIGMtMC41NCwwLjM2LTEuMTcsMC41NC0xLjgyLDAuNWMtMC41NywwLjAyLTEuMTMtMC4xLTEuNjQtMC4zNXYtMS40M2MwLjQ2LDAuNDIsMS4wNiwwLjY1LDEuNjgsMC42NSAgICAgICBjMC4yNCwwLjAxLDAuNDgtMC4wNSwwLjY4LTAuMThjMC4xNS0wLjExLDAuMjUtMC4yOCwwLjI0LTAuNDdjMC0wLjE5LTAuMDktMC4zOC0wLjIzLTAuNUMyLjExLDM4LDEuNzksMzcuODEsMS40NSwzNy42NyAgICAgICBjLTAuODItMC4yNi0xLjQtMS0xLjQ1LTEuODZjLTAuMDItMC41MywwLjIyLTEuMDQsMC42NC0xLjM3YzAuNDgtMC4zNiwxLjA4LTAuNTUsMS42OC0wLjUyYzAuNTMtMC4wMSwxLjA1LDAuMDcsMS41NSwwLjI1ICAgICAgIHYxLjMzYy0wLjQ0LTAuMy0wLjk3LTAuNDYtMS41LTAuNDRjLTAuMjMtMC4wMS0wLjQ2LDAuMDUtMC42NSwwLjE3Yy0wLjE1LDAuMTEtMC4yNCwwLjI4LTAuMjQsMC40NyAgICAgICBjLTAuMDEsMC4xOCwwLjA2LDAuMzYsMC4yLDAuNDljMC4yNCwwLjIsMC41LDAuMzYsMC43OSwwLjQ4YzAuNDcsMC4yLDAuOTEsMC40OSwxLjI3LDAuODVDNCwzNy44Miw0LjE1LDM4LjIxLDQuMTUsMzguNjF6Ii8+JiN4YTsJCQkJPC9nPiYjeGE7CQkJCTxnIGlkPSJzaGFwZTM1NzAtMTQiIHRyYW5zZm9ybT0idHJhbnNsYXRlKDYuOTIyNSkiPiYjeGE7CQkJCQk8dGl0bGUgaWQ9InRpdGxlMTA3MDIzIj5wYXRoNzU2OTwvdGl0bGU+JiN4YTsJCQkJCTxwYXRoIGlkPSJwYXRoMTA3MDI1IiBpbmtzY2FwZTpjb25uZWN0b3ItY3VydmF0dXJlPSIwIiBzdHlsZT0iZmlsbDojMkI4RkRFOyIgZD0iTTEwLjUsMTYuNTV2MjAuMjFjMCwxLjY2LTQuNywzLjc1LTEwLjUsMy43NSAgICAgICBWMTYuNTVIMTAuNXoiLz4mI3hhOwkJCQk8L2c+JiN4YTsJCQkJPGcgaWQ9InNoYXBlMzU3MS0xNiIgdHJhbnNmb3JtPSJ0cmFuc2xhdGUoNC43ODUsLTcuMDk1KSI+JiN4YTsJCQkJCTx0aXRsZSBpZD0idGl0bGUxMDcwMjgiPnBhdGg3NTcxPC90aXRsZT4mI3hhOwkJCQkJPHBhdGggaWQ9InBhdGgxMDcwMzAiIGlua3NjYXBlOmNvbm5lY3Rvci1jdXJ2YXR1cmU9IjAiIHN0eWxlPSJmaWxsOiNGRkZGRkY7IiBkPSJNNi4yLDM1LjdjMC4wMiwwLjY4LTAuMTYsMS4zNS0wLjUxLDEuOTQgICAgICAgYy0wLjMzLDAuNTQtMC44MywwLjk1LTEuNDMsMS4xNmwxLjg0LDEuNzFINC4yNGwtMS4zMi0xLjVjLTAuNTMtMC4wMi0xLjA1LTAuMTctMS41LTAuNDVjLTAuNDUtMC4yNy0wLjgxLTAuNjctMS4wNS0xLjE0ICAgICAgIGMtMC4yNS0wLjUtMC4zOC0xLjA1LTAuMzctMS42MWMtMC4wMS0wLjYxLDAuMTItMS4yMiwwLjQtMS43N2MwLjI1LTAuNSwwLjY0LTAuOTEsMS4xMi0xLjE5YzAuNTEtMC4yOSwxLjA5LTAuNDMsMS42Ny0wLjQyICAgICAgIGMwLjU1LTAuMDEsMS4wOSwwLjEzLDEuNTcsMC40MWMwLjQ2LDAuMjcsMC44NCwwLjY2LDEuMDgsMS4xNEM2LjEsMzQuNTIsNi4yMiwzNS4xMSw2LjIsMzUuN3ogTTQuNywzNS43OCAgICAgICBjMC4wMi0wLjUzLTAuMTItMS4wNi0wLjQyLTEuNWMtMC4yNy0wLjM3LTAuNy0wLjU4LTEuMTUtMC41NmMtMC40Ny0wLjAyLTAuOTEsMC4xOS0xLjIsMC41NmMtMC42LDAuOTEtMC42LDIuMDksMCwzICAgICAgIGMwLjI4LDAuMzcsMC43MSwwLjU3LDEuMTcsMC41NmMwLjQ1LDAuMDIsMC44OS0wLjE4LDEuMTctMC41NGMwLjMyLTAuNDQsMC40Ny0wLjk4LDAuNDItMS41Mkg0Ljd6Ii8+JiN4YTsJCQkJPC9nPiYjeGE7CQkJCTxnIGlkPSJzaGFwZTM1NzItMTgiIHRyYW5zZm9ybT0idHJhbnNsYXRlKDEyLjAzNzUsLTguNjc3NSkiPiYjeGE7CQkJCQk8dGl0bGUgaWQ9InRpdGxlMTA3MDMzIj5wb2x5Z29uNzU3MzwvdGl0bGU+JiN4YTsJCQkJCTxwYXRoIGlkPSJwYXRoMTA3MDM1IiBpbmtzY2FwZTpjb25uZWN0b3ItY3VydmF0dXJlPSIwIiBzdHlsZT0iZmlsbDojRkZGRkZGOyIgZD0iTTAsMzQuMTVoMS40M3Y1LjJoMi4zNnYxLjE2SDBWMzQuMTV6Ii8+JiN4YTsJCQkJPC9nPiYjeGE7CQkJPC9nPiYjeGE7CQkJPGcgaWQ9InNoYXBlMzU3My0yMCIgdHJhbnNmb3JtPSJ0cmFuc2xhdGUoMi44ODc1LC0yMC4zMTc1KSI+JiN4YTsJCQkJPHRpdGxlIGlkPSJ0aXRsZTEwNzAzOSI+cGF0aDc1Nzc8L3RpdGxlPiYjeGE7CQkJCTxwYXRoIGlkPSJwYXRoMTA3MDQxIiBpbmtzY2FwZTpjb25uZWN0b3ItY3VydmF0dXJlPSIwIiBzdHlsZT0iZmlsbDojRkZGRkZGOyIgZD0iTTIwLjE1LDM2Ljg2YzAsMi4wMi00LjUsMy42NS0xMC4wNywzLjY1ICAgICAgQzQuNTEsNDAuNTEsMCwzOC45LDAsMzYuODZzNC41LTMuNjQsMTAuMDctMy42NFMyMC4xNSwzNC44OCwyMC4xNSwzNi44NnoiLz4mI3hhOwkJCTwvZz4mI3hhOwkJCTxnIGlkPSJzaGFwZTM1NzQtMjIiIHRyYW5zZm9ybT0idHJhbnNsYXRlKDQuOTQyNSwtMjEuNzQyNSkiPiYjeGE7CQkJCTx0aXRsZSBpZD0idGl0bGUxMDcwNDQiPnBhdGg3NTc5PC90aXRsZT4mI3hhOwkJCQk8cGF0aCBpZD0icGF0aDEwNzA0NiIgaW5rc2NhcGU6Y29ubmVjdG9yLWN1cnZhdHVyZT0iMCIgc3R5bGU9ImZpbGw6IzdGQkEwMDsiIGQ9Ik0xNi4wMywzOC4xYzAsMS4zMy0zLjU4LDIuNDEtOC4wMSwyLjQxICAgICAgQzMuNTgsNDAuNTEsMCwzOS40MywwLDM4LjFzMy41OC0yLjQxLDguMDItMi40MUMxMi40NSwzNS42OSwxNi4wMywzNi43OSwxNi4wMywzOC4xeiIvPiYjeGE7CQkJPC9nPiYjeGE7CQkJPGcgaWQ9InNoYXBlMzU3NS0yNCIgdHJhbnNmb3JtPSJ0cmFuc2xhdGUoNC45NSwtMjIuNjUpIj4mI3hhOwkJCQk8dGl0bGUgaWQ9InRpdGxlMTA3MDQ5Ij5wYXRoNzU4MTwvdGl0bGU+JiN4YTsJCQkJPHBhdGggaWQ9InBhdGgxMDcwNTEiIGlua3NjYXBlOmNvbm5lY3Rvci1jdXJ2YXR1cmU9IjAiIHN0eWxlPSJmaWxsOiNCOEQ0MzI7IiBkPSJNMTQuMzQsNDAuNDhjMS4wNS0wLjQxLDEuNjgtMC45MiwxLjY4LTEuNSAgICAgIGMwLTEuMzMtMy41OS0yLjQxLTguMDItMi40MXMtOCwxLjEzLTgsMi40NGMwLDAuNTUsMC42MywxLjA2LDEuNjgsMS41YzIuMDQtMC42Nyw0LjE5LTAuOTksNi4zNC0wLjk0ICAgICAgQzEwLjE2LDM5LjUxLDEyLjMsMzkuODIsMTQuMzQsNDAuNDh6Ii8+JiN4YTsJCQk8L2c+JiN4YTsJCTwvZz4mI3hhOwkJPGcgaWQ9InNoYXBlMzU3Ni0yNiIgdHJhbnNmb3JtPSJ0cmFuc2xhdGUoMjYuNzksLTAuMTA1KSI+JiN4YTsJCQk8dGl0bGUgaWQ9InRpdGxlMTA3MDU1Ij5wYXRoNzU4NTwvdGl0bGU+JiN4YTsJCQk8cGF0aCBpZD0icGF0aDEwNzA1NyIgaW5rc2NhcGU6Y29ubmVjdG9yLWN1cnZhdHVyZT0iMCIgc3R5bGU9ImZpbGw6I0ZGRkZGRjsiIGQ9Ik04LjAyLDIxLjAySDAuM2MtMC4xNywwLTAuMywwLjEzLTAuMywwLjMgICAgIGMwLDAsMCwwLjAxLDAsMC4wMVY0MC4yYzAsMC4xNywwLjEzLDAuMywwLjI5LDAuMzFjMCwwLDAuMDEsMCwwLjAxLDBsMTMuNjUsMGMwLjE3LDAsMC4zLTAuMTMsMC4zLTAuM2MwLDAsMC0wLjAxLDAtMC4wMVYyNy4xMSAgICAgTDguMDIsMjEuMDJ6Ii8+JiN4YTsJCTwvZz4mI3hhOwkJPGcgaWQ9Imdyb3VwMzU3Ny0yOCIgdHJhbnNmb3JtPSJ0cmFuc2xhdGUoMjYuNzkpIj4mI3hhOwkJCTx0aXRsZSBpZD0idGl0bGUxMDcwNjAiPmc3NTk3PC90aXRsZT4mI3hhOwkJCTxnIGlkPSJzaGFwZTM1NzgtMjkiIHRyYW5zZm9ybT0idHJhbnNsYXRlKDcuNTUyNSwtMTIuNjM3NSkiPiYjeGE7CQkJCTx0aXRsZSBpZD0idGl0bGUxMDcwNjIiPnBvbHlnb243NTg3PC90aXRsZT4mI3hhOwkJCQk8cGF0aCBpZD0icGF0aDEwNzA2NCIgaW5rc2NhcGU6Y29ubmVjdG9yLWN1cnZhdHVyZT0iMCIgc3R5bGU9ImZpbGw6I0I4RDQzMjsiIGQ9Ik0wLDM0LjEzbDYuNyw2LjM4SDBWMzQuMTN6Ii8+JiN4YTsJCQk8L2c+JiN4YTsJCQk8ZyBpZD0ic2hhcGUzNTc5LTMxIj4mI3hhOwkJCQk8dGl0bGUgaWQ9InRpdGxlMTA3MDY3Ij5wYXRoNzU4OTwvdGl0bGU+JiN4YTsJCQkJJiN4YTsJCQkJCTxwYXRoIGlkPSJwYXRoMTA3MDY5IiBpbmtzY2FwZTpjb25uZWN0b3ItY3VydmF0dXJlPSIwIiBzdHlsZT0iZmlsbDpub25lO3N0cm9rZTojNTU2QThBO3N0cm9rZS13aWR0aDoxLjU7c3Ryb2tlLW1pdGVybGltaXQ6MzsiIGQ9IiAgICAgIE04LjAyLDIxLjAxSDAuM2MtMC4xNywwLTAuMywwLjEzLTAuMywwLjNjMCwwLDAsMC4wMSwwLDAuMDFWNDAuMmMwLDAuMTcsMC4xMywwLjMsMC4yOSwwLjMxYzAsMCwwLjAxLDAsMC4wMSwwbDEzLjY1LDAgICAgICBjMC4xNywwLDAuMy0wLjEzLDAuMy0wLjNjMCwwLDAtMC4wMSwwLTAuMDFWMjcuMUw4LjAyLDIxLjAxeiIvPiYjeGE7CQkJPC9nPiYjeGE7CQkJPGcgaWQ9InNoYXBlMzU4MC0zMyIgdHJhbnNmb3JtPSJ0cmFuc2xhdGUoNi44MDI1LC0xMi43NSkiPiYjeGE7CQkJCTx0aXRsZSBpZD0idGl0bGUxMDcwNzIiPnBvbHlsaW5lNzU5MTwvdGl0bGU+JiN4YTsJCQkJPHBhdGggaWQ9InBhdGgxMDcwNzQiIGlua3NjYXBlOmNvbm5lY3Rvci1jdXJ2YXR1cmU9IjAiIHN0eWxlPSJmaWxsOm5vbmU7IiBkPSJNMCwzNC4xM3Y2LjM4aDYuN0wwLDM0LjEzeiIvPiYjeGE7CQkJCSYjeGE7CQkJCQk8cGF0aCBpZD0icGF0aDEwNzA3NiIgaW5rc2NhcGU6Y29ubmVjdG9yLWN1cnZhdHVyZT0iMCIgc3R5bGU9ImZpbGw6bm9uZTtzdHJva2U6IzU1NkE4QTtzdHJva2Utd2lkdGg6MS41O3N0cm9rZS1taXRlcmxpbWl0OjM7IiBkPSIgICAgICBNMCwzNC4xM3Y2LjM4aDYuNyIvPiYjeGE7CQkJPC9nPiYjeGE7CQkJPGcgaWQ9InNoYXBlMzU4MS0zNiIgdHJhbnNmb3JtPSJ0cmFuc2xhdGUoMi4yNSwtOSkiPiYjeGE7CQkJCTx0aXRsZSBpZD0idGl0bGUxMDcwNzkiPmxpbmU3NTkzPC90aXRsZT4mI3hhOwkJCQkmI3hhOwkJCQkJPHBhdGggaWQ9InBhdGgxMDcwODEiIGlua3NjYXBlOmNvbm5lY3Rvci1jdXJ2YXR1cmU9IjAiIHN0eWxlPSJmaWxsOm5vbmU7c3Ryb2tlOiNBN0E5QUM7c3Ryb2tlLXdpZHRoOjEuNTtzdHJva2UtbWl0ZXJsaW1pdDozOyIgZD0iICAgICAgTTAsNDAuNTFoOS43NSIvPiYjeGE7CQkJPC9nPiYjeGE7CQkJPGcgaWQ9InNoYXBlMzU4Mi0zOSIgdHJhbnNmb3JtPSJ0cmFuc2xhdGUoMi4yNSwtNS4yNSkiPiYjeGE7CQkJCTx0aXRsZSBpZD0idGl0bGUxMDcwODQiPmxpbmU3NTk1PC90aXRsZT4mI3hhOwkJCQkmI3hhOwkJCQkJPHBhdGggaWQ9InBhdGgxMDcwODYiIGlua3NjYXBlOmNvbm5lY3Rvci1jdXJ2YXR1cmU9IjAiIHN0eWxlPSJmaWxsOm5vbmU7c3Ryb2tlOiNBN0E5QUM7c3Ryb2tlLXdpZHRoOjEuNTtzdHJva2UtbWl0ZXJsaW1pdDozOyIgZD0iICAgICAgTTAsNDAuNTFoOS43NSIvPiYjeGE7CQkJPC9nPiYjeGE7CQk8L2c+JiN4YTsJPC9nPiYjeGE7PC9nPiYjeGE7PC9zdmc+;" parent="1" vertex="1">
          <mxGeometry x="500" y="520" width="48" height="39" as="geometry" />
        </mxCell>
        <mxCell id="pgp2nBGtSMHjbhWHDTlj-2090" value="" style="shape=image;verticalLabelPosition=bottom;labelBackgroundColor=#ffffff;verticalAlign=top;aspect=fixed;imageAspect=0;image=data:image/svg+xml,PHN2ZyB4bWxuczpjYz0iaHR0cDovL2NyZWF0aXZlY29tbW9ucy5vcmcvbnMjIiB4bWxuczpkYz0iaHR0cDovL3B1cmwub3JnL2RjL2VsZW1lbnRzLzEuMS8iIHhtbG5zOmlua3NjYXBlPSJodHRwOi8vd3d3Lmlua3NjYXBlLm9yZy9uYW1lc3BhY2VzL2lua3NjYXBlIiB4bWxuczpyZGY9Imh0dHA6Ly93d3cudzMub3JnLzE5OTkvMDIvMjItcmRmLXN5bnRheC1ucyMiIHhtbG5zOnNvZGlwb2RpPSJodHRwOi8vc29kaXBvZGkuc291cmNlZm9yZ2UubmV0L0RURC9zb2RpcG9kaS0wLmR0ZCIgeG1sbnM6c3ZnPSJodHRwOi8vd3d3LnczLm9yZy8yMDAwL3N2ZyIgeG1sbnM9Imh0dHA6Ly93d3cudzMub3JnLzIwMDAvc3ZnIiB4bWxuczp4bGluaz0iaHR0cDovL3d3dy53My5vcmcvMTk5OS94bGluayIgdmVyc2lvbj0iMS4xIiBpZD0ic3ZnMTA0Nzg1IiBpbmtzY2FwZTp2ZXJzaW9uPSIwLjkyLjMgKDI0MDU1NDYsIDIwMTgtMDMtMTEpIiBzb2RpcG9kaTpkb2NuYW1lPSJzcWxfMS5zdmciIHg9IjBweCIgeT0iMHB4IiB2aWV3Qm94PSIwIDAgNDEuNDkgNTUuMzIiIHN0eWxlPSJlbmFibGUtYmFja2dyb3VuZDpuZXcgMCAwIDQxLjQ5IDU1LjMyOyIgeG1sOnNwYWNlPSJwcmVzZXJ2ZSI+JiN4YTs8c29kaXBvZGk6bmFtZWR2aWV3IGJvcmRlcmNvbG9yPSIjNjY2NjY2IiBib3JkZXJvcGFjaXR5PSIxIiBmaXQtbWFyZ2luLWJvdHRvbT0iMCIgZml0LW1hcmdpbi1sZWZ0PSIwIiBmaXQtbWFyZ2luLXJpZ2h0PSIwIiBmaXQtbWFyZ2luLXRvcD0iMCIgZ3JpZHRvbGVyYW5jZT0iMTAiIGd1aWRldG9sZXJhbmNlPSIxMCIgaWQ9Im5hbWVkdmlldzEwNDc4NyIgaW5rc2NhcGU6Y3VycmVudC1sYXllcj0ic3ZnMTA0Nzg1IiBpbmtzY2FwZTpjeD0iMjcuNjU4MDc3IiBpbmtzY2FwZTpjeT0iLTUuMjgzNDUyIiBpbmtzY2FwZTpwYWdlb3BhY2l0eT0iMCIgaW5rc2NhcGU6cGFnZXNoYWRvdz0iMiIgaW5rc2NhcGU6d2luZG93LWhlaWdodD0iMTAxNyIgaW5rc2NhcGU6d2luZG93LW1heGltaXplZD0iMSIgaW5rc2NhcGU6d2luZG93LXdpZHRoPSIxOTIwIiBpbmtzY2FwZTp3aW5kb3cteD0iLTgiIGlua3NjYXBlOndpbmRvdy15PSItOCIgaW5rc2NhcGU6em9vbT0iNS4zNTM0MDYyIiBvYmplY3R0b2xlcmFuY2U9IjEwIiBwYWdlY29sb3I9IiNmZmZmZmYiIHNob3dncmlkPSJmYWxzZSI+JiN4YTsJPC9zb2RpcG9kaTpuYW1lZHZpZXc+JiN4YTs8ZyBpZD0iZzEwNDc4MyIgdHJhbnNmb3JtPSJ0cmFuc2xhdGUoLTQ4LjI1OTksLTEuNDQ5ODg4OSkiPiYjeGE7CTx0aXRsZSBpZD0idGl0bGUxMDQ3NjgiPlBhZ2UtMTwvdGl0bGU+JiN4YTsJPGcgaWQ9Imdyb3VwMzYxNi0xIiB0cmFuc2Zvcm09InRyYW5zbGF0ZSg0OC4yNTk5LC02NC42OTA2KSI+JiN4YTsJCTx0aXRsZSBpZD0idGl0bGUxMDQ3NzAiPlNRTCAjMTwvdGl0bGU+JiN4YTsJCTxnIGlkPSJzaGFwZTM2MTctMiIgdHJhbnNmb3JtPSJ0cmFuc2xhdGUoMTguODk5NywtMjIuODk2MSkiPiYjeGE7CQkJPHRpdGxlIGlkPSJ0aXRsZTEwNDc3MiI+U2hlZXQuMzYxNzwvdGl0bGU+JiN4YTsJCQk8cGF0aCBpZD0icGF0aDEwNDc3NCIgaW5rc2NhcGU6Y29ubmVjdG9yLWN1cnZhdHVyZT0iMCIgc3R5bGU9ImZpbGw6IzNGNTc2NTsiIGQ9Ik0zLjYxLDExNi41NmMtMC4xNS0wLjI3LTAuMzctMC40OS0wLjYyLTAuNjUgICAgIGMtMC4yMy0wLjE1LTAuNTMtMC4yNC0wLjg4LTAuMjRjLTAuMzYsMC0wLjcsMC4wOS0wLjk2LDAuMjRjLTAuMjcsMC4xNi0wLjQ4LDAuMzYtMC42NywwLjYzYy0wLjE2LDAuMjctMC4yOCwwLjU2LTAuMzYsMC45MyAgICAgQzAuMDMsMTE3LjgyLDAsMTE4LjE5LDAsMTE4LjU5YzAsMC41MSwwLjA1LDAuOTQsMC4xNywxLjMxYzAuMTEsMC4zNywwLjI2LDAuNjcsMC40NSwwLjljMC4xOCwwLjIzLDAuMzksMC40LDAuNjQsMC41ICAgICBjMC4yNSwwLjExLDAuNTIsMC4xNiwwLjgsMC4xNmMwLjI3LDAsMC41Mi0wLjA1LDAuNzUtMC4xNmMwLjI1LTAuMSwwLjQ3LTAuMjksMC42NS0wLjUyYzAuMi0wLjIxLDAuMzUtMC41MSwwLjQ2LTAuODggICAgIGMwLjEtMC4zNSwwLjE3LTAuNzYsMC4xNy0xLjI2YzAtMC40LTAuMDMtMC43OS0wLjEyLTEuMTNDMy44OSwxMTcuMTQsMy43OCwxMTYuODIsMy42MSwxMTYuNTZ6Ii8+JiN4YTsJCTwvZz4mI3hhOwkJPGcgaWQ9InNoYXBlMzYxOC00Ij4mI3hhOwkJCTx0aXRsZSBpZD0idGl0bGUxMDQ3NzciPlNoZWV0LjM2MTg8L3RpdGxlPiYjeGE7CQkJPHBhdGggaWQ9InBhdGgxMDQ3NzkiIGlua3NjYXBlOmNvbm5lY3Rvci1jdXJ2YXR1cmU9IjAiIHN0eWxlPSJmaWxsOiMzRjU3NjU7IiBkPSJNMjAuNzMsNjYuMTRDOS4yOCw2Ni4xNCwwLDcwLjA1LDAsNzQuMzR2MzguNzkgICAgIGMwLDQuMjksOS4yOCw4LjMzLDIwLjczLDguMzNjMTEuNDYsMCwyMC43Ni0zLjg2LDIwLjc2LTguMTVWNzQuNTZDNDEuNDksNzAuMjUsMzIuMTksNjYuMTQsMjAuNzMsNjYuMTR6IE0xNC41MSw5OC42NiAgICAgYy0wLjA1LDAuMjgtMC4xNSwwLjU1LTAuMywwLjgxYy0wLjE0LDAuMjctMC4zMywwLjUyLTAuNTcsMC43NWMtMC4yMywwLjIzLTAuNTMsMC40NS0wLjksMC42M2MtMC4zNSwwLjE5LTAuNzgsMC4zMi0xLjI2LDAuNDIgICAgIGMtMC41LDAuMTItMS4wNiwwLjE3LTEuNzEsMC4xN2MtMC4zNSwwLTAuNjgtMC4wMi0xLTAuMDdjLTAuMzItMC4wMy0wLjYtMC4wNy0wLjg4LTAuMTNjLTAuMjctMC4wNS0wLjUyLTAuMTItMC43My0wLjE5ICAgICBjLTAuMjQtMC4wNi0wLjQyLTAuMTUtMC41OS0wLjIxdi0zLjA1YzAuMTksMC4xNCwwLjQsMC4yOSwwLjY1LDAuNDJjMC4yNCwwLjEzLDAuNSwwLjI1LDAuNzcsMC4zNmMwLjI2LDAuMSwwLjU1LDAuMTksMC44NSwwLjI1ICAgICBjMC4yOCwwLjA5LDAuNTYsMC4xMiwwLjg0LDAuMTJjMC4yNCwwLDAuNDQtMC4wMywwLjU5LTAuMDhjMC4xNS0wLjA0LDAuMjYtMC4xLDAuMzUtMC4xOWMwLjA4LTAuMDYsMC4xNC0wLjE0LDAuMTgtMC4yMyAgICAgYzAuMDMtMC4xLDAuMDUtMC4xOCwwLjA1LTAuMjhjMC0wLjE3LTAuMDUtMC4zMi0wLjE0LTAuNDVjLTAuMDgtMC4xMi0wLjItMC4yMy0wLjM1LTAuMzNjLTAuMTYtMC4xLTAuMzQtMC4yLTAuNTQtMC4yOSAgICAgQzkuNiw5Nyw5LjM1LDk2LjkxLDkuMSw5Ni44MWMtMC40OC0wLjE4LTAuOS0wLjQtMS4yNS0wLjY1Yy0wLjMzLTAuMjUtMC42MS0wLjUtMC44My0wLjc4Yy0wLjIyLTAuMjgtMC4zNy0wLjYtMC40Ny0wLjkxICAgICBjLTAuMS0wLjMyLTAuMTUtMC42NS0wLjE1LTFjMC0wLjU1LDAuMTItMS4wMywwLjM0LTEuNDhjMC4yMS0wLjQzLDAuNTMtMC44LDAuOTEtMS4xMmMwLjQtMC4yOSwwLjg4LTAuNTQsMS40My0wLjY5ICAgICBjMC41NS0wLjE3LDEuMTctMC4yNSwxLjg1LTAuMjVjMC4zOCwwLDAuNzEsMC4wMSwxLjAzLDAuMDNjMC4zMSwwLjAzLDAuNiwwLjA2LDAuODUsMC4xMmMwLjI1LDAuMDMsMC40NiwwLjA4LDAuNjYsMC4xMyAgICAgYzAuMiwwLjA1LDAuMzgsMC4xLDAuNTMsMC4xNXYyLjgzYy0wLjE2LTAuMDktMC4zMy0wLjE5LTAuNTUtMC4yN2MtMC4yLTAuMS0wLjQxLTAuMTgtMC42NC0wLjI1Yy0wLjI0LTAuMDgtMC40OS0wLjEzLTAuNzUtMC4xOCAgICAgYy0wLjI3LTAuMDUtMC41NC0wLjA3LTAuODItMC4wN2MtMC4zNiwwLTAuNjYsMC4wNy0wLjksMC4yYy0wLjIzLDAuMTUtMC4zNSwwLjMzLTAuMzUsMC41OGMwLDAuMTIsMC4wNCwwLjI0LDAuMDksMC4zNCAgICAgczAuMTMsMC4xOCwwLjIzLDAuMjZjMC4xMiwwLjA5LDAuMjcsMC4xOSwwLjQ1LDAuMjdjMC4xOCwwLjEsMC40LDAuMiwwLjY2LDAuM2MwLjQ3LDAuMTgsMC44OSwwLjM4LDEuMjksMC42ICAgICBjMC4zOCwwLjIxLDAuNzEsMC40NiwwLjk5LDAuNzRjMC4yOSwwLjI3LDAuNSwwLjU5LDAuNjUsMC45NGMwLjE3LDAuMzUsMC4yNSwwLjc2LDAuMjUsMS4yMyAgICAgQzE0LjYxLDk4LjEzLDE0LjU3LDk4LjM5LDE0LjUxLDk4LjY2eiBNMjIuOTQsMTA0LjA2bC0yLjQ1LTIuNjJjLTAuNzEtMC4wNS0xLjM4LTAuMjItMS45OS0wLjQ5Yy0wLjY0LTAuMjgtMS4xOC0wLjY1LTEuNjUtMS4xMyAgICAgYy0wLjQ3LTAuNDgtMC44My0xLjA1LTEuMTEtMS43M2MtMC4yNy0wLjY2LTAuNC0xLjQzLTAuNC0yLjI2YzAtMC44OCwwLjEzLTEuNjgsMC40MS0yLjRjMC4yOC0wLjczLDAuNjctMS4zNCwxLjE4LTEuODYgICAgIGMwLjUtMC41MywxLjEtMC45MywxLjgtMS4yMWMwLjctMC4yOSwxLjQ4LTAuNDQsMi4zMS0wLjQ0YzAuOCwwLDEuNTMsMC4xNCwyLjIxLDAuNGMwLjY3LDAuMjcsMS4yNSwwLjY1LDEuNzMsMS4xNSAgICAgYzAuNDksMC40OSwwLjg3LDEuMDgsMS4xNSwxLjhjMC4yNywwLjcsMC40LDEuNSwwLjQsMi4zOGMwLDAuNjMtMC4wNywxLjIzLTAuMjMsMS43OGMtMC4xNSwwLjU1LTAuMzcsMS4wNS0wLjY1LDEuNDggICAgIGMtMC4yNywwLjQ1LTAuNiwwLjgzLTAuOTcsMS4xNmMtMC4zOCwwLjM0LTAuNzgsMC42LTEuMjMsMC44bDMuNzUsMy4yaC00LjI2VjEwNC4wNnogTTM1LjMsMTAxLjI0aC03LjE5VjkwLjExaDMuMzZ2OC41aDMuODMgICAgIFYxMDEuMjR6IE0yMC43MSw3OC4xNmMtOC4xNSwwLTE0Ljc3LTIuMDEtMTQuNzctNC41MmMwLTIuNTEsNi42Mi00LjUyLDE0Ljc3LTQuNTJjOC4xNywwLDE0Ljc5LDIuMDEsMTQuNzksNC41MiAgICAgQzM1LjUsNzYuMTUsMjguODgsNzguMTYsMjAuNzEsNzguMTZ6Ii8+JiN4YTsJCTwvZz4mI3hhOwk8L2c+JiN4YTs8L2c+JiN4YTs8L3N2Zz4=;" parent="1" vertex="1">
          <mxGeometry x="510" y="510" width="41" height="55" as="geometry" />
        </mxCell>
        <mxCell id="pgp2nBGtSMHjbhWHDTlj-2091" value="" style="shape=image;verticalLabelPosition=bottom;labelBackgroundColor=#ffffff;verticalAlign=top;aspect=fixed;imageAspect=0;image=data:image/svg+xml,PHN2ZyB4bWxuczpkYz0iaHR0cDovL3B1cmwub3JnL2RjL2VsZW1lbnRzLzEuMS8iIHhtbG5zOmNjPSJodHRwOi8vY3JlYXRpdmVjb21tb25zLm9yZy9ucyMiIHhtbG5zOnJkZj0iaHR0cDovL3d3dy53My5vcmcvMTk5OS8wMi8yMi1yZGYtc3ludGF4LW5zIyIgeG1sbnM6c3ZnPSJodHRwOi8vd3d3LnczLm9yZy8yMDAwL3N2ZyIgeG1sbnM9Imh0dHA6Ly93d3cudzMub3JnLzIwMDAvc3ZnIiB4bWxuczpzb2RpcG9kaT0iaHR0cDovL3NvZGlwb2RpLnNvdXJjZWZvcmdlLm5ldC9EVEQvc29kaXBvZGktMC5kdGQiIHhtbG5zOmlua3NjYXBlPSJodHRwOi8vd3d3Lmlua3NjYXBlLm9yZy9uYW1lc3BhY2VzL2lua3NjYXBlIiB2ZXJzaW9uPSIxLjEiIGlkPSJzdmcxMDQ1NzIiIGlua3NjYXBlOnZlcnNpb249IjAuOTIuMyAoMjQwNTU0NiwgMjAxOC0wMy0xMSkiIHNvZGlwb2RpOmRvY25hbWU9InNxbC5zdmciIHg9IjBweCIgeT0iMHB4IiB2aWV3Qm94PSIwIDAgNDYuMDMgNjEuMDIiIHhtbDpzcGFjZT0icHJlc2VydmUiIHdpZHRoPSI0Ni4wMjk5OTkiIGhlaWdodD0iNjEuMDIiPjxtZXRhZGF0YSBpZD0ibWV0YWRhdGExMDQ4Ij48cmRmOlJERj48Y2M6V29yayByZGY6YWJvdXQ9IiI+PGRjOmZvcm1hdD5pbWFnZS9zdmcreG1sPC9kYzpmb3JtYXQ+PGRjOnR5cGUgcmRmOnJlc291cmNlPSJodHRwOi8vcHVybC5vcmcvZGMvZGNtaXR5cGUvU3RpbGxJbWFnZSIvPjxkYzp0aXRsZS8+PC9jYzpXb3JrPjwvcmRmOlJERj48L21ldGFkYXRhPjxkZWZzIGlkPSJkZWZzMTA0NiI+JiN4YTsJJiN4YTsmI3hhOwkmI3hhOyYjeGE7CSYjeGE7JiN4YTsJJiN4YTsmI3hhOwkmI3hhOyYjeGE7CSYjeGE7JiN4YTsJJiN4YTsmI3hhOwkmI3hhOyYjeGE7CSYjeGE7JiN4YTsJCSYjeGE7CSYjeGE7CQkmI3hhOwkmI3hhOwkJJiN4YTsJJiN4YTsJCSYjeGE7CSYjeGE7CQkmI3hhOwkmI3hhOwkJJiN4YTsJJiN4YTsJCSYjeGE7CSYjeGE7CQkmI3hhOwk8L2RlZnM+JiN4YTs8ZmlsdGVyIGlkPSJmaWx0ZXJfMiI+JiN4YTsJPGZlR2F1c3NpYW5CbHVyIGlkPSJmZUdhdXNzaWFuQmx1cjEwNDQ4OSIgc3RkRGV2aWF0aW9uPSIyIi8+JiN4YTs8L2ZpbHRlcj4mI3hhOzxzb2RpcG9kaTpuYW1lZHZpZXcgYm9yZGVyY29sb3I9IiM2NjY2NjYiIGJvcmRlcm9wYWNpdHk9IjEiIGZpdC1tYXJnaW4tYm90dG9tPSIwIiBmaXQtbWFyZ2luLWxlZnQ9IjAiIGZpdC1tYXJnaW4tcmlnaHQ9IjAiIGZpdC1tYXJnaW4tdG9wPSIwIiBncmlkdG9sZXJhbmNlPSIxMCIgZ3VpZGV0b2xlcmFuY2U9IjEwIiBpZD0ibmFtZWR2aWV3MTA0NTc0IiBpbmtzY2FwZTpjdXJyZW50LWxheWVyPSJzdmcxMDQ1NzIiIGlua3NjYXBlOmN4PSIwLjI3NDc3MzkyIiBpbmtzY2FwZTpjeT0iMjcuOTI1ODA5IiBpbmtzY2FwZTpwYWdlb3BhY2l0eT0iMCIgaW5rc2NhcGU6cGFnZXNoYWRvdz0iMiIgaW5rc2NhcGU6d2luZG93LWhlaWdodD0iMTAxNyIgaW5rc2NhcGU6d2luZG93LW1heGltaXplZD0iMSIgaW5rc2NhcGU6d2luZG93LXdpZHRoPSIxOTIwIiBpbmtzY2FwZTp3aW5kb3cteD0iLTgiIGlua3NjYXBlOndpbmRvdy15PSItOCIgaW5rc2NhcGU6em9vbT0iNy42MDUyNjMyIiBvYmplY3R0b2xlcmFuY2U9IjEwIiBwYWdlY29sb3I9IiNmZmZmZmYiIHNob3dncmlkPSJmYWxzZSI+JiN4YTsJPC9zb2RpcG9kaTpuYW1lZHZpZXc+JiN4YTsmI3hhOzxwYXRoIGlkPSJwYXRoMTA0NTAyIiBpbmtzY2FwZTpjb25uZWN0b3ItY3VydmF0dXJlPSIwIiBzdHlsZT0iZmlsbDojMDA3MmM2IiBkPSJtIDAsOC4zNCB2IDQ0LjM0IGMgMCw0LjYxIDEwLjMxLDguMzQgMjMuMDIsOC4zNCBWIDguMzQgWiIvPiYjeGE7JiN4YTs8cGF0aCBpZD0icGF0aDEwNDUxMCIgaW5rc2NhcGU6Y29ubmVjdG9yLWN1cnZhdHVyZT0iMCIgc3R5bGU9ImZpbGw6IzAwNzJjNiIgZD0ibSAyMi43LDYxLjAyIGggMC4zMiBjIDEyLjcxLDAgMjMuMDEsLTMuNzMgMjMuMDEsLTguMzQgViA4LjM0IEggMjIuNyBaIi8+JiN4YTsmI3hhOzxwYXRoIGlkPSJwYXRoMTA0NTE4IiBpbmtzY2FwZTpjb25uZWN0b3ItY3VydmF0dXJlPSIwIiBzdHlsZT0iZmlsbDojZmZmZmZmO2ZpbGwtb3BhY2l0eTowLjE1IiBkPSJtIDIyLjcsNjEuMDIgaCAwLjMyIGMgMTIuNzEsMCAyMy4wMSwtMy43MyAyMy4wMSwtOC4zNCBWIDguMzQgSCAyMi43IFoiLz4mI3hhOyYjeGE7PHBhdGggaWQ9InBhdGgxMDQ1MjYiIGlua3NjYXBlOmNvbm5lY3Rvci1jdXJ2YXR1cmU9IjAiIHN0eWxlPSJmaWxsOiNmZmZmZmYiIGQ9Im0gNDYuMDMsOC4zMyBjIDAsNC42MSAtMTAuMyw4LjM0IC0yMy4wMSw4LjM0IEMgMTAuMzEsMTYuNjcgMCwxMi45NCAwLDguMzMgMCwzLjczIDEwLjMxLDAgMjMuMDIsMCAzNS43MywwIDQ2LjAzLDMuNzMgNDYuMDMsOC4zMyBaIi8+JiN4YTsmI3hhOzxwYXRoIGlkPSJwYXRoMTA0NTM0IiBpbmtzY2FwZTpjb25uZWN0b3ItY3VydmF0dXJlPSIwIiBzdHlsZT0iZmlsbDojN2ZiYTAwIiBkPSJtIDQxLjMyLDcuODUgYyAwLDMuMDQgLTguMTksNS41IC0xOC4zMSw1LjUgLTEwLjExLDAgLTE4LjMxLC0yLjQ2IC0xOC4zMSwtNS41IDAsLTMuMDQgOC4yLC01LjUgMTguMzEsLTUuNSAxMC4xMiwwIDE4LjMxLDIuNDYgMTguMzEsNS41IHoiLz4mI3hhOyYjeGE7PHBhdGggaWQ9InBhdGgxMDQ1NDIiIGlua3NjYXBlOmNvbm5lY3Rvci1jdXJ2YXR1cmU9IjAiIHN0eWxlPSJmaWxsOiNiOGQ0MzIiIGQ9Im0gMzcuNSwxMS4yMSBjIDIuMzksLTAuOTMgMy44MywtMi4wOSAzLjgzLC0zLjM2IDAsLTMuMDQgLTguMTksLTUuNSAtMTguMzEsLTUuNSAtMTAuMTEsMCAtMTguMzEsMi40NiAtMTguMzEsNS41IDAsMS4yNyAxLjQ0LDIuNDMgMy44NCwzLjM2IDMuMzUsLTEuMyA4LjU4LC0yLjE0IDE0LjQ3LC0yLjE0IDUuOSwwIDExLjEzLDAuODQgMTQuNDgsMi4xNCB6Ii8+JiN4YTsmI3hhOzxwYXRoIGlkPSJwYXRoMTA0NTUwIiBpbmtzY2FwZTpjb25uZWN0b3ItY3VydmF0dXJlPSIwIiBzdHlsZT0iZmlsbDojZmZmZmZmIiBkPSJtIDE1LjcxLDM5LjExIGMgMCwxLjM4IC0wLjUsMi40NSAtMS41LDMuMjEgLTEsMC43NSAtMi4zOCwxLjEzIC00LjE0LDEuMTMgLTEuNSwwIC0yLjc1LC0wLjI3IC0zLjc2LC0wLjgxIFYgMzkuNCBjIDEuMTYsMC45OCAyLjQ0LDEuNDggMy44NCwxLjQ4IDAuNjcsMCAxLjIsLTAuMTQgMS41NiwtMC40MSAwLjM3LC0wLjI3IDAuNTYsLTAuNjMgMC41NiwtMS4wNyAwLC0wLjQ0IC0wLjE4LC0wLjgyIC0wLjUzLC0xLjE1IEMgMTEuMzgsMzcuOTMgMTAuNjYsMzcuNTEgOS41NywzNyA3LjM2LDM1Ljk2IDYuMjUsMzQuNTQgNi4yNSwzMi43NCBjIDAsLTEuMyAwLjQ4LC0yLjM1IDEuNDUsLTMuMTMgMC45NiwtMC43OSAyLjI1LC0xLjE4IDMuODUsLTEuMTggMS40MiwwIDIuNTksMC4xOCAzLjUyLDAuNTUgdiAzLjAzIEMgMTQuMDksMzEuMzQgMTIuOTgsMzEgMTEuNzMsMzEgYyAtMC42MywwIC0xLjEyLDAuMTMgLTEuNDksMC40IC0wLjM2LDAuMjcgLTAuNTQsMC42MiAtMC41NCwxLjA3IDAsMC40NiAwLjE0LDAuODMgMC40NCwxLjEzIDAuMjksMC4yOSAwLjg5LDAuNjUgMS44LDEuMDkgMS4zNiwwLjY0IDIuMzMsMS4yOSAyLjkxLDEuOTUgMC41NywwLjY2IDAuODYsMS40OSAwLjg2LDIuNDcgeiIvPiYjeGE7JiN4YTs8cGF0aCBpZD0icGF0aDEwNDU1OCIgaW5rc2NhcGU6Y29ubmVjdG9yLWN1cnZhdHVyZT0iMCIgc3R5bGU9ImZpbGw6I2ZmZmZmZiIgZD0ibSAzMS4zMywzNS44NCBjIDAsMS43MSAtMC4zOSwzLjE5IC0xLjE2LDQuNDUgLTAuNzgsMS4yNSAtMS44NywyLjEzIC0zLjI4LDIuNjQgbCA0LjIxLDMuOSBoIC00LjI1IGwgLTMuMDEsLTMuMzcgYyAtMS4yOSwtMC4wNSAtMi40NiwtMC4zOSAtMy40OSwtMS4wMyAtMS4wNCwtMC42MyAtMS44NCwtMS41IC0yLjQsLTIuNjEgLTAuNTcsLTEuMSAtMC44NSwtMi4zMyAtMC44NSwtMy42OSAwLC0xLjUgMC4zMSwtMi44NSAwLjkyLC00LjAyIDAuNjEsLTEuMTggMS40NywtMi4wOSAyLjU3LC0yLjcyIDEuMTEsLTAuNjQgMi4zOCwtMC45NiAzLjgxLC0wLjk2IDEuMzQsMCAyLjU0LDAuMzEgMy41OSwwLjkzIDEuMDYsMC42MSAxLjg4LDEuNDggMi40NywyLjYyIDAuNTgsMS4xMyAwLjg3LDIuNDIgMC44NywzLjg2IHogbSAtMy40NCwwLjE4IGMgMCwtMS40NyAtMC4zMiwtMi42MyAtMC45NiwtMy40OSAtMC42NSwtMC44NSAtMS41MiwtMS4yOCAtMi42NCwtMS4yOCAtMS4xMywwIC0yLjA0LDAuNDMgLTIuNzIsMS4yOSAtMC42OCwwLjg1IC0xLjAzLDEuOTkgLTEuMDMsMy40MiAwLDEuNDIgMC4zNCwyLjU1IDEuMDEsMy40IDAuNjcsMC44NCAxLjU1LDEuMjcgMi42NiwxLjI3IDEuMTMsMCAyLjAyLC0wLjQxIDIuNjgsLTEuMjMgMC42NywtMC44MiAxLC0xLjk1IDEsLTMuMzggeiIvPiYjeGE7JiN4YTs8cGF0aCBpZD0icGF0aDEwNDU2NiIgaW5rc2NhcGU6Y29ubmVjdG9yLWN1cnZhdHVyZT0iMCIgc3R5bGU9ImZpbGw6I2ZmZmZmZiIgZD0iTSA0Mi4zOSw0My4yIEggMzMuNzQgViAyOC42NyBoIDMuMjcgdiAxMS44OCBoIDUuMzggeiIvPiYjeGE7PC9zdmc+;" parent="1" vertex="1">
          <mxGeometry x="510" y="510" width="46" height="61" as="geometry" />
        </mxCell>
        <mxCell id="pgp2nBGtSMHjbhWHDTlj-2092" value="" style="shape=image;verticalLabelPosition=bottom;labelBackgroundColor=#ffffff;verticalAlign=top;aspect=fixed;imageAspect=0;image=data:image/svg+xml,PHN2ZyB4bWxuczpjYz0iaHR0cDovL2NyZWF0aXZlY29tbW9ucy5vcmcvbnMjIiB4bWxuczpkYz0iaHR0cDovL3B1cmwub3JnL2RjL2VsZW1lbnRzLzEuMS8iIHhtbG5zOmlua3NjYXBlPSJodHRwOi8vd3d3Lmlua3NjYXBlLm9yZy9uYW1lc3BhY2VzL2lua3NjYXBlIiB4bWxuczpyZGY9Imh0dHA6Ly93d3cudzMub3JnLzE5OTkvMDIvMjItcmRmLXN5bnRheC1ucyMiIHhtbG5zOnNvZGlwb2RpPSJodHRwOi8vc29kaXBvZGkuc291cmNlZm9yZ2UubmV0L0RURC9zb2RpcG9kaS0wLmR0ZCIgeG1sbnM6c3ZnPSJodHRwOi8vd3d3LnczLm9yZy8yMDAwL3N2ZyIgeG1sbnM9Imh0dHA6Ly93d3cudzMub3JnLzIwMDAvc3ZnIiB4bWxuczp4bGluaz0iaHR0cDovL3d3dy53My5vcmcvMTk5OS94bGluayIgdmVyc2lvbj0iMS4xIiBpZD0ic3ZnMTAzMTA4IiBpbmtzY2FwZTp2ZXJzaW9uPSIwLjkyLjMgKDI0MDU1NDYsIDIwMTgtMDMtMTEpIiBzb2RpcG9kaTpkb2NuYW1lPSJwb3N0Z3Jlc3FsXzEuc3ZnIiB4PSIwcHgiIHk9IjBweCIgdmlld0JveD0iMCAwIDUyLjg4IDYwLjA3IiBzdHlsZT0iZW5hYmxlLWJhY2tncm91bmQ6bmV3IDAgMCA1Mi44OCA2MC4wNzsiIHhtbDpzcGFjZT0icHJlc2VydmUiPiYjeGE7PHNvZGlwb2RpOm5hbWVkdmlldyBib3JkZXJjb2xvcj0iIzY2NjY2NiIgYm9yZGVyb3BhY2l0eT0iMSIgZml0LW1hcmdpbi1ib3R0b209IjAiIGZpdC1tYXJnaW4tbGVmdD0iMCIgZml0LW1hcmdpbi1yaWdodD0iMCIgZml0LW1hcmdpbi10b3A9IjAiIGdyaWR0b2xlcmFuY2U9IjEwIiBndWlkZXRvbGVyYW5jZT0iMTAiIGlkPSJuYW1lZHZpZXcxMDMxMTAiIGlua3NjYXBlOmN1cnJlbnQtbGF5ZXI9InN2ZzEwMzEwOCIgaW5rc2NhcGU6Y3g9IjM1LjI1IiBpbmtzY2FwZTpjeT0iNDAuMDQ1MTk5IiBpbmtzY2FwZTpwYWdlb3BhY2l0eT0iMCIgaW5rc2NhcGU6cGFnZXNoYWRvdz0iMiIgaW5rc2NhcGU6d2luZG93LWhlaWdodD0iMTAxNyIgaW5rc2NhcGU6d2luZG93LW1heGltaXplZD0iMSIgaW5rc2NhcGU6d2luZG93LXdpZHRoPSIxOTIwIiBpbmtzY2FwZTp3aW5kb3cteD0iLTgiIGlua3NjYXBlOndpbmRvdy15PSItOCIgaW5rc2NhcGU6em9vbT0iMTAuODI0NDc2IiBvYmplY3R0b2xlcmFuY2U9IjEwIiBwYWdlY29sb3I9IiNmZmZmZmYiIHNob3dncmlkPSJmYWxzZSI+JiN4YTsJPC9zb2RpcG9kaTpuYW1lZHZpZXc+JiN4YTs8ZyBpZD0iZzEwMzEwNiI+JiN4YTsJPHRpdGxlIGlkPSJ0aXRsZTEwMjk2OSI+UGFnZS0xPC90aXRsZT4mI3hhOwk8ZyBpZD0iZ3JvdXAzNzIyLTEiPiYjeGE7CQk8dGl0bGUgaWQ9InRpdGxlMTAyOTcxIj5Qb3N0Z3JlU1FMICMxPC90aXRsZT4mI3hhOwkJPGcgaWQ9InNoYXBlMzcyMy0yIj4mI3hhOwkJCTx0aXRsZSBpZD0idGl0bGUxMDI5NzMiPkRhdGFiYXNlICMyPC90aXRsZT4mI3hhOwkJCTxwYXRoIGlkPSJwYXRoMTAyOTc1IiBpbmtzY2FwZTpjb25uZWN0b3ItY3VydmF0dXJlPSIwIiBzdHlsZT0iZmlsbDojM0Y1NzY1OyIgZD0iTTI2LjcxLDBjMTQuNjQsMCwyNi4xNywzLjkzLDI2LjE3LDguMzEgICAgIGMwLDQzLjU0LDAsNDMuNTQsMCw0My41NGMwLDQuODMtMTEuNTMsOC4yMi0yNi4xNyw4LjIyQzEyLjE1LDYwLjA3LDAsNTYuNjgsMCw1MS44NUMwLDguMzEsMCw4LjMxLDAsOC4zMSAgICAgQzAsMy45MywxMi4xNSwwLDI2LjcxLDB6IE0yNi43MSwxNC4yMWMxMi41OSwwLDIyLjY4LTIuOTUsMjIuNjgtNS45YzAtMi44Ni0xMC4wOS01LjM2LTIyLjY4LTUuMzZjLTEyLjYsMC0yMi42LDIuNS0yMi42LDUuMzYgICAgIEM0LjExLDExLjI2LDE0LjExLDE0LjIxLDI2LjcxLDE0LjIxeiIvPiYjeGE7CQk8L2c+JiN4YTsJCTxnIGlkPSJncm91cDM3MjQtNCIgdHJhbnNmb3JtPSJ0cmFuc2xhdGUoOS44NDcyNCwtNS40NTA1MykiPiYjeGE7CQkJPHRpdGxlIGlkPSJ0aXRsZTEwMjk3OCI+U2hlZXQuMzcyNDwvdGl0bGU+JiN4YTsJCQk8ZyBpZD0ic2hhcGUzNzI1LTUiIHRyYW5zZm9ybT0idHJhbnNsYXRlKDE1LjQ5NikiPiYjeGE7CQkJCTx0aXRsZSBpZD0idGl0bGUxMDI5ODAiPnBhdGgyNDY2LTU8L3RpdGxlPiYjeGE7CQkJCTxwYXRoIGlkPSJwYXRoMTAyOTgyIiBpbmtzY2FwZTpjb25uZWN0b3ItY3VydmF0dXJlPSIwIiBzdHlsZT0iZmlsbDpub25lOyIgZD0iTTAuMTEsNDkuMzFDMCw1My4zOCwwLjMsNTYuNjEsMC42OSw1Ny42ICAgICAgYzAuNCwxLDEuNzIsMi40Nyw0LjY1LDEuODRjMi40NS0wLjUyLDMuNTctMS41NCwzLjk2LTMuNzhjMC4yOC0xLjY1LDAuNjgtNS4wNiwwLjc1LTZMMC4xMSw0OS4zMXoiLz4mI3hhOwkJCQkmI3hhOwkJCQkJPHBhdGggaWQ9InBhdGgxMDI5ODQiIGlua3NjYXBlOmNvbm5lY3Rvci1jdXJ2YXR1cmU9IjAiIHN0eWxlPSJmaWxsOm5vbmU7c3Ryb2tlOiMzRjU3NjU7c3Ryb2tlLWxpbmVjYXA6cm91bmQ7c3Ryb2tlLWxpbmVqb2luOnJvdW5kO3N0cm9rZS1taXRlcmxpbWl0OjM7IiBkPSIgICAgICBNMC4xMSw0OS4zMUMwLDUzLjM4LDAuMyw1Ni42MSwwLjY5LDU3LjZjMC40LDEsMS43MiwyLjQ3LDQuNjUsMS44NGMyLjQ1LTAuNTIsMy41Ny0xLjU0LDMuOTYtMy43OGMwLjI4LTEuNjUsMC42OC01LjA2LDAuNzUtNiIvPiYjeGE7CQkJPC9nPiYjeGE7CQkJPGcgaWQ9InNoYXBlMzcyNi04IiB0cmFuc2Zvcm09InRyYW5zbGF0ZSgwLC00Ljg1MzQ2KSI+JiN4YTsJCQkJPHRpdGxlIGlkPSJ0aXRsZTEwMjk4NyI+cGF0aDI0NjgtMDwvdGl0bGU+JiN4YTsJCQkJPHBhdGggaWQ9InBhdGgxMDI5ODkiIGlua3NjYXBlOmNvbm5lY3Rvci1jdXJ2YXR1cmU9IjAiIHN0eWxlPSJmaWxsOm5vbmU7IiBkPSJNMTMuNSwzMy4zYzAsMC0xMy41LTUuNDItMTIuODgsNi45MSAgICAgIGMwLjEzLDIuNjMsMy45OSwxOS44Niw4LjMyLDE0LjY2YzIuNjItMi40NCwzLjAxLTMuNCwzLjAxLTMuNEwxMy41LDMzLjN6Ii8+JiN4YTsJCQkJJiN4YTsJCQkJCTxwYXRoIGlkPSJwYXRoMTAyOTkxIiBpbmtzY2FwZTpjb25uZWN0b3ItY3VydmF0dXJlPSIwIiBzdHlsZT0iZmlsbDpub25lO3N0cm9rZTojM0Y1NzY1O3N0cm9rZS1saW5lY2FwOnJvdW5kO3N0cm9rZS1saW5lam9pbjpyb3VuZDtzdHJva2UtbWl0ZXJsaW1pdDozOyIgZD0iICAgICAgTTEzLjUsMzMuM2MwLDAtMTMuNS01LjQyLTEyLjg4LDYuOTFjMC4xMywyLjYzLDMuOTksMTkuODYsOC4zMiwxNC42NmMyLjYyLTIuNDQsMy4wMS0zLjQsMy4wMS0zLjQiLz4mI3hhOwkJCTwvZz4mI3hhOwkJCTxnIGlkPSJzaGFwZTM3MjctMTEiIHRyYW5zZm9ybT0idHJhbnNsYXRlKDE5LjI2NjgsLTEzLjA3NjgpIj4mI3hhOwkJCQk8dGl0bGUgaWQ9InRpdGxlMTAyOTk0Ij5wYXRoMjQ3MC03PC90aXRsZT4mI3hhOwkJCQk8cGF0aCBpZD0icGF0aDEwMjk5NiIgaW5rc2NhcGU6Y29ubmVjdG9yLWN1cnZhdHVyZT0iMCIgc3R5bGU9ImZpbGw6IzNGNTc2NTsiIGQ9Ik0wLjQ2LDQwLjU0QzAsNDAuNjgsNy44NCwzNy42NywxMi4zLDQzLjM2ICAgICAgYzEuNTcsMi4wMi0wLjI1LDEwLjI0LTQuNjIsMTYuNzFMMC40Niw0MC41NHoiLz4mI3hhOwkJCQkmI3hhOwkJCQkJPHBhdGggaWQ9InBhdGgxMDI5OTgiIGlua3NjYXBlOmNvbm5lY3Rvci1jdXJ2YXR1cmU9IjAiIHN0eWxlPSJmaWxsOm5vbmU7c3Ryb2tlOiMzRjU3NjU7c3Ryb2tlLWxpbmVjYXA6cm91bmQ7c3Ryb2tlLWxpbmVqb2luOnJvdW5kO3N0cm9rZS1taXRlcmxpbWl0OjM7IiBkPSIgICAgICBNMC40Niw0MC41NEMwLDQwLjY4LDcuODQsMzcuNjcsMTIuMyw0My4zNmMxLjU3LDIuMDItMC4yNSwxMC4yNC00LjYyLDE2LjcxIi8+JiN4YTsJCQk8L2c+JiN4YTsJCQk8ZyBpZD0ic2hhcGUzNzI4LTE0IiB0cmFuc2Zvcm09InRyYW5zbGF0ZSg4LjkxMTY5LC05Ljc0ODU4KSI+JiN4YTsJCQkJPHRpdGxlIGlkPSJ0aXRsZTEwMzAwMSI+cGF0aDI0NzItMjwvdGl0bGU+JiN4YTsJCQkJPHBhdGggaWQ9InBhdGgxMDMwMDMiIGlua3NjYXBlOmNvbm5lY3Rvci1jdXJ2YXR1cmU9IjAiIHN0eWxlPSJmaWxsOm5vbmU7IiBkPSJNMTguMDQsNTUuNDFjMCwwLDAuMjgsMS40LDQuNDIsMC41NSAgICAgIGMxLjgxLTAuMzcsMC43MiwyLjM4LTEuMTIsMy4yM2MtMS41MSwwLjctNC44OCwwLjg4LTQuOTQtMC4wOEMxNi4yNiw1Ni42MSwxOC4xOCw1Ni4wNCwxOC4wNCw1NS40MSAgICAgIGMtMC4xMy0wLjU2LTAuOTgsMC4yMi0xLjU1LTEuMTZjLTAuNS0xLjItNi44MS0xMC40MiwxLjc1LTkuMDVjMC4zMS0wLjA3LTIuMjMtOC4xNC0xMC4yNC04LjI3Yy04LTAuMTMtNy43NCw5Ljg0LTcuNzQsOS44NCAgICAgIEwxOC4wNCw1NS40MXoiLz4mI3hhOwkJCQkmI3hhOwkJCQkJPHBhdGggaWQ9InBhdGgxMDMwMDUiIGlua3NjYXBlOmNvbm5lY3Rvci1jdXJ2YXR1cmU9IjAiIHN0eWxlPSJmaWxsOm5vbmU7c3Ryb2tlOiMzRjU3NjU7c3Ryb2tlLWxpbmVjYXA6cm91bmQ7c3Ryb2tlLWxpbmVqb2luOnJvdW5kO3N0cm9rZS1taXRlcmxpbWl0OjM7IiBkPSIgICAgICBNMTguMDQsNTUuNDFjMCwwLDAuMjgsMS40LDQuNDIsMC41NWMxLjgxLTAuMzcsMC43MiwyLjM4LTEuMTIsMy4yM2MtMS41MSwwLjctNC44OCwwLjg4LTQuOTQtMC4wOCAgICAgIEMxNi4yNiw1Ni42MSwxOC4xOCw1Ni4wNCwxOC4wNCw1NS40MWMtMC4xMy0wLjU2LTAuOTgsMC4yMi0xLjU1LTEuMTZjLTAuNS0xLjItNi44MS0xMC40MiwxLjc1LTkuMDUgICAgICBjMC4zMS0wLjA3LTIuMjMtOC4xNC0xMC4yNC04LjI3Yy04LTAuMTMtNy43NCw5Ljg0LTcuNzQsOS44NCIvPiYjeGE7CQkJPC9nPiYjeGE7CQkJPGcgaWQ9InNoYXBlMzcyOS0xNyIgdHJhbnNmb3JtPSJ0cmFuc2xhdGUoOC41NTcwNCwtOC4yMzMxNykiPiYjeGE7CQkJCTx0aXRsZSBpZD0idGl0bGUxMDMwMDgiPnBhdGgyNDc0LTc8L3RpdGxlPiYjeGE7CQkJCSYjeGE7CQkJCQk8cGF0aCBpZD0icGF0aDEwMzAxMCIgaW5rc2NhcGU6Y29ubmVjdG9yLWN1cnZhdHVyZT0iMCIgc3R5bGU9ImZpbGw6bm9uZTtzdHJva2U6IzNGNTc2NTtzdHJva2UtbGluZWNhcDpyb3VuZDtzdHJva2UtbGluZWpvaW46cm91bmQ7c3Ryb2tlLW1pdGVybGltaXQ6MzsiIGQ9IiAgICAgIE01LjI3LDU2LjA4Yy0xLjExLDEuMjUtMC43OCwxLjQ3LTMuMDEsMS45M0MwLDU4LjQ3LDEuMzMsNTguOTMsMi4xOSw1OS4xOGMxLjg2LDAuMzQsMy4zMiwwLjg5LDUuMTItMS4wMiAgICAgIGMwLjUtMC43LTAuMDEtMi4xMi0wLjY5LTIuNDFDNi4yOSw1NS42Miw1Ljg0LDU1LjQ0LDUuMjcsNTYuMDh6Ii8+JiN4YTsJCQk8L2c+JiN4YTsJCQk8ZyBpZD0ic2hhcGUzNzMwLTE5IiB0cmFuc2Zvcm09InRyYW5zbGF0ZSg4LjY2MjMyLC0xMi4yNDU1KSI+JiN4YTsJCQkJPHRpdGxlIGlkPSJ0aXRsZTEwMzAxMyI+cGF0aDI0NzYtMTwvdGl0bGU+JiN4YTsJCQkJPHBhdGggaWQ9InBhdGgxMDMwMTUiIGlua3NjYXBlOmNvbm5lY3Rvci1jdXJ2YXR1cmU9IjAiIHN0eWxlPSJmaWxsOm5vbmU7IiBkPSJNNS4xLDYwLjA3Yy0wLjEyLTAuNzMsMC4yNC0xLjYsMC42MS0yLjYyICAgICAgYzAuNTctMS41MywxLjg5LTMuMDYsMC44NC03LjkyYy0wLjc5LTMuNjItNi4wMy0wLjc1LTYuMDQtMC4yNmMwLDAuNDksMC4yNCwyLjQ5LTAuMDksNC44MWMtMC40MiwzLjAzLDEuOTMsNS42LDQuNjUsNS4zNCAgICAgIEw1LjEsNjAuMDd6Ii8+JiN4YTsJCQkJJiN4YTsJCQkJCTxwYXRoIGlkPSJwYXRoMTAzMDE3IiBpbmtzY2FwZTpjb25uZWN0b3ItY3VydmF0dXJlPSIwIiBzdHlsZT0iZmlsbDpub25lO3N0cm9rZTojMDAwMDAwO3N0cm9rZS1saW5lY2FwOnJvdW5kO3N0cm9rZS1saW5lam9pbjpyb3VuZDtzdHJva2UtbWl0ZXJsaW1pdDozOyIgZD0iICAgICAgTTUuMSw2MC4wN2MtMC4xMi0wLjczLDAuMjQtMS42LDAuNjEtMi42MmMwLjU3LTEuNTMsMS44OS0zLjA2LDAuODQtNy45MmMtMC43OS0zLjYyLTYuMDMtMC43NS02LjA0LTAuMjYgICAgICBjMCwwLjQ5LDAuMjQsMi40OS0wLjA5LDQuODFjLTAuNDIsMy4wMywxLjkzLDUuNiw0LjY1LDUuMzQiLz4mI3hhOwkJCTwvZz4mI3hhOwkJCTxnIGlkPSJzaGFwZTM3MzEtMjIiIHRyYW5zZm9ybT0idHJhbnNsYXRlKDEyLjQ4NTQsLTIyLjM4OCkiPiYjeGE7CQkJCTx0aXRsZSBpZD0idGl0bGUxMDMwMjAiPnBhdGgyNDc4LTQ8L3RpdGxlPiYjeGE7CQkJCTxwYXRoIGlkPSJwYXRoMTAzMDIyIiBpbmtzY2FwZTpjb25uZWN0b3ItY3VydmF0dXJlPSIwIiBzdHlsZT0iZmlsbDpub25lO3N0cm9rZTojMDAwMDAwO3N0cm9rZS1taXRlcmxpbWl0OjM7IiBkPSJNMC4wMiw1OS4zNCAgICAgIEMwLDU5LjUxLDAuMzMsNTkuOTUsMC43Niw2MC4wMWMwLjQzLDAuMDYsMC44LTAuMjksMC44Mi0wLjQ1YzAuMDMtMC4xNy0wLjMtMC4zNi0wLjczLTAuNDJDMC40MSw1OS4wOCwwLjA1LDU5LjE3LDAuMDIsNTkuMzR6Ii8+JiN4YTsJCQk8L2c+JiN4YTsJCQk8ZyBpZD0ic2hhcGUzNzMyLTI0IiB0cmFuc2Zvcm09InRyYW5zbGF0ZSgyNC4wMjY0LC0yMi43Mjk1KSI+JiN4YTsJCQkJPHRpdGxlIGlkPSJ0aXRsZTEwMzAyNSI+cGF0aDI0ODAtODwvdGl0bGU+JiN4YTsJCQkJPHBhdGggaWQ9InBhdGgxMDMwMjciIGlua3NjYXBlOmNvbm5lY3Rvci1jdXJ2YXR1cmU9IjAiIHN0eWxlPSJmaWxsOm5vbmU7c3Ryb2tlOiMwMDAwMDA7c3Ryb2tlLW1pdGVybGltaXQ6MzsiIGQ9Ik0xLjU4LDU5LjM0ICAgICAgYzAuMDMsMC4xNy0wLjMsMC42MS0wLjc0LDAuNjdjLTAuNDMsMC4wNi0wLjc5LTAuMjktMC44Mi0wLjQ1QzAsNTkuMzksMC4zMyw1OS4yLDAuNzYsNTkuMTRTMS41Niw1OS4xNywxLjU4LDU5LjM0eiIvPiYjeGE7CQkJPC9nPiYjeGE7CQkJPGcgaWQ9InNoYXBlMzczMy0yNiIgdHJhbnNmb3JtPSJ0cmFuc2xhdGUoMjYuMjI5OCwtMTQuMzIzNSkiPiYjeGE7CQkJCTx0aXRsZSBpZD0idGl0bGUxMDMwMzAiPnBhdGgyNDgyLTQ8L3RpdGxlPiYjeGE7CQkJCTxwYXRoIGlkPSJwYXRoMTAzMDMyIiBpbmtzY2FwZTpjb25uZWN0b3ItY3VydmF0dXJlPSIwIiBzdHlsZT0iZmlsbDpub25lOyIgZD0iTTAuOTIsNDkuNzdjMC4wNywxLjMyLTAuMjgsMi4yMS0wLjMzLDMuNjEgICAgICBDMC41Miw1NS40MSwxLjU2LDU3Ljc0LDAsNjAuMDdMMC45Miw0OS43N3oiLz4mI3hhOwkJCQkmI3hhOwkJCQkJPHBhdGggaWQ9InBhdGgxMDMwMzQiIGlua3NjYXBlOmNvbm5lY3Rvci1jdXJ2YXR1cmU9IjAiIHN0eWxlPSJmaWxsOm5vbmU7c3Ryb2tlOiMwMDAwMDA7c3Ryb2tlLWxpbmVjYXA6cm91bmQ7c3Ryb2tlLWxpbmVqb2luOnJvdW5kO3N0cm9rZS1taXRlcmxpbWl0OjM7IiBkPSIgICAgICBNMC45Miw0OS43N2MwLjA3LDEuMzItMC4yOCwyLjIxLTAuMzMsMy42MUMwLjUyLDU1LjQxLDEuNTYsNTcuNzQsMCw2MC4wNyIvPiYjeGE7CQkJPC9nPiYjeGE7CQkJPGcgaWQ9InNoYXBlMzczNC0yOSIgdHJhbnNmb3JtPSJ0cmFuc2xhdGUoMTAuNjE3NiwtMTEuMzI0MSkiPiYjeGE7CQkJCTx0aXRsZSBpZD0idGl0bGUxMDMwMzciPnBhdGgxMTY3ODwvdGl0bGU+JiN4YTsJCQkJJiN4YTsJCQkJCTxwYXRoIGlkPSJwYXRoMTAzMDM5IiBpbmtzY2FwZTpjb25uZWN0b3ItY3VydmF0dXJlPSIwIiBzdHlsZT0iZmlsbDojM0Y1NzY1O3N0cm9rZTojM0Y1NzY1O3N0cm9rZS1saW5lY2FwOnNxdWFyZTtzdHJva2UtbWl0ZXJsaW1pdDozOyIgZD0iICAgICAgTTAuNTEsNTguNDhsMi41Ni0wLjA2bC0xLjEyLDEuNjVMMCw1OS45TDAuNTEsNTguNDh6Ii8+JiN4YTsJCQk8L2c+JiN4YTsJCQk8ZyBpZD0ic2hhcGUzNzM1LTMxIiB0cmFuc2Zvcm09InRyYW5zbGF0ZSgwLjk5ODM3OSwtMC44ODYwNTQpIj4mI3hhOwkJCQk8dGl0bGUgaWQ9InRpdGxlMTAzMDQyIj5wYXRoMjQ2NDwvdGl0bGU+JiN4YTsJCQkJJiN4YTsJCQkJCTxwYXRoIGlkPSJwYXRoMTAzMDQ0IiBpbmtzY2FwZTpjb25uZWN0b3ItY3VydmF0dXJlPSIwIiBzdHlsZT0iZmlsbDojM0Y1NzY1O3N0cm9rZTojRkZGRkZGO3N0cm9rZS1saW5lY2FwOnJvdW5kO3N0cm9rZS1saW5lam9pbjpyb3VuZDtzdHJva2UtbWl0ZXJsaW1pdDozOyIgZD0iICAgICAgTTI5LjU3LDQ3LjgyYy0zLjgxLDAuNzktNC4wNy0wLjUtNC4wNy0wLjVjNC4wMi01Ljk3LDUuNy0xMy41NCw0LjI1LTE1LjRjLTMuOTYtNS4wNi0xMC44MS0yLjY2LTEwLjkyLTIuNmgtMC4wNCAgICAgIGMtMC43NS0wLjE1LTEuNi0wLjI0LTIuNTQtMC4yNmMtMS43My0wLjAzLTMuMDMsMC40NS00LjAzLDEuMmMwLDAtMTIuMjItNS4wMy0xMS42NSw2LjM0YzAuMTIsMi40MiwzLjQ3LDE4LjMsNy40NiwxMy41ICAgICAgYzEuNDUtMS43NSwyLjg2LTMuMjQsMi44Ni0zLjI0YzAuNywwLjQ3LDEuNTQsMC43MSwyLjQyLDAuNjJsMC4wNy0wLjA2Yy0wLjAyLDAuMjItMC4wMSwwLjQzLDAuMDMsMC42OSAgICAgIGMtMS4wMywxLjE0LTAuNzMsMS4zNS0yLjc5LDEuNzdjLTIuMDgsMC40My0wLjg1LDEuMTktMC4wNiwxLjM5YzAuOTcsMC4yNCwzLjIxLDAuNTgsNC43Mi0xLjUzbC0wLjA2LDAuMjQgICAgICBjMC40LDAuMzIsMC42OCwyLjEsMC42NCwzLjcxYy0wLjA1LDEuNjEtMC4wOCwyLjcxLDAuMjQsMy41OGMwLjMxLDAuODYsMC42MywyLjgsMy4zMywyLjIyYzIuMjYtMC40OCwzLjQzLTEuNzMsMy41OS0zLjgzICAgICAgYzAuMTItMS40OCwwLjM4LTEuMjYsMC4zOS0yLjU5bDAuMjEtMC42M2MwLjI1LTIuMDIsMC4wNC0yLjY3LDEuNDMtMi4zNmwwLjM0LDAuMDNjMS4wMiwwLjA0LDIuMzYtMC4xNywzLjE1LTAuNTMgICAgICBDMzAuMjMsNDguNzksMzEuMjQsNDcuNDgsMjkuNTcsNDcuODJ6Ii8+JiN4YTsJCQk8L2c+JiN4YTsJCQk8ZyBpZD0ic2hhcGUzNzM2LTMzIiB0cmFuc2Zvcm09InRyYW5zbGF0ZSgxNi4zMzY1LC0wLjgzMzg5OSkiPiYjeGE7CQkJCTx0aXRsZSBpZD0idGl0bGUxMDMwNDciPnBhdGgyNDY2PC90aXRsZT4mI3hhOwkJCQk8cGF0aCBpZD0icGF0aDEwMzA0OSIgaW5rc2NhcGU6Y29ubmVjdG9yLWN1cnZhdHVyZT0iMCIgc3R5bGU9ImZpbGw6IzNGNTc2NTsiIGQ9Ik0wLjEsNDguOTNjLTAuMSwzLjc1LDAuMDMsNy41MiwwLjQsOC40NCAgICAgIHMxLjE1LDIuNywzLjg1LDIuMTJjMi4yNi0wLjQ4LDMuMDgtMS40MiwzLjQ0LTMuNDhjMC4yNi0xLjUyLDAuNzctNS43NSwwLjgzLTYuNjFMMC4xLDQ4LjkzeiIvPiYjeGE7CQkJCSYjeGE7CQkJCQk8cGF0aCBpZD0icGF0aDEwMzA1MSIgaW5rc2NhcGU6Y29ubmVjdG9yLWN1cnZhdHVyZT0iMCIgc3R5bGU9ImZpbGw6bm9uZTtzdHJva2U6I0ZGRkZGRjtzdHJva2UtbGluZWNhcDpyb3VuZDtzdHJva2UtbGluZWpvaW46cm91bmQ7c3Ryb2tlLW1pdGVybGltaXQ6MzsiIGQ9IiAgICAgIE0wLjEsNDguOTNjLTAuMSwzLjc1LDAuMDMsNy41MiwwLjQsOC40NHMxLjE1LDIuNywzLjg1LDIuMTJjMi4yNi0wLjQ4LDMuMDgtMS40MiwzLjQ0LTMuNDhjMC4yNi0xLjUyLDAuNzctNS43NSwwLjgzLTYuNjEiLz4mI3hhOwkJCTwvZz4mI3hhOwkJCTxnIGlkPSJzaGFwZTM3MzctMzYiIHRyYW5zZm9ybT0idHJhbnNsYXRlKDAuOTcxMjA0LC02LjEwNzUzKSI+JiN4YTsJCQkJPHRpdGxlIGlkPSJ0aXRsZTEwMzA1NCI+cGF0aDI0Njg8L3RpdGxlPiYjeGE7CQkJCTxwYXRoIGlkPSJwYXRoMTAzMDU2IiBpbmtzY2FwZTpjb25uZWN0b3ItY3VydmF0dXJlPSIwIiBzdHlsZT0iZmlsbDojM0Y1NzY1OyIgZD0iTTEyLjIzLDM1LjRjMCwwLTEyLjIzLTUtMTEuNjYsNi4zNyAgICAgIGMwLjEyLDIuNDIsMy40NywxOC4zLDcuNDYsMTMuNWMxLjQ1LTEuNzUsMi43Ny0zLjEzLDIuNzctMy4xM0wxMi4yMywzNS40eiIvPiYjeGE7CQkJCSYjeGE7CQkJCQk8cGF0aCBpZD0icGF0aDEwMzA1OCIgaW5rc2NhcGU6Y29ubmVjdG9yLWN1cnZhdHVyZT0iMCIgc3R5bGU9ImZpbGw6bm9uZTtzdHJva2U6I0ZGRkZGRjtzdHJva2UtbGluZWNhcDpyb3VuZDtzdHJva2UtbGluZWpvaW46cm91bmQ7c3Ryb2tlLW1pdGVybGltaXQ6MzsiIGQ9IiAgICAgIE0xMi4yMywzNS40YzAsMC0xMi4yMy01LTExLjY2LDYuMzdjMC4xMiwyLjQyLDMuNDcsMTguMyw3LjQ2LDEzLjVjMS40NS0xLjc1LDIuNzctMy4xMywyLjc3LTMuMTMiLz4mI3hhOwkJCTwvZz4mI3hhOwkJCTxnIGlkPSJzaGFwZTM3MzgtMzkiIHRyYW5zZm9ybT0idHJhbnNsYXRlKDE5LjM4NjcsLTEzLjY4NjIpIj4mI3hhOwkJCQk8dGl0bGUgaWQ9InRpdGxlMTAzMDYxIj5wYXRoMjQ3MDwvdGl0bGU+JiN4YTsJCQkJPHBhdGggaWQ9InBhdGgxMDMwNjMiIGlua3NjYXBlOmNvbm5lY3Rvci1jdXJ2YXR1cmU9IjAiIHN0eWxlPSJmaWxsOiMzRjU3NjU7IiBkPSJNMC40Miw0Mi4wN0MwLDQyLjIsNy4yMywzOS40MywxMS4zNCw0NC42NyAgICAgIGMxLjQ1LDEuODYtMC4yNCw5LjQzLTQuMjYsMTUuNEwwLjQyLDQyLjA3eiIvPiYjeGE7CQkJCSYjeGE7CQkJCQk8cGF0aCBpZD0icGF0aDEwMzA2NSIgaW5rc2NhcGU6Y29ubmVjdG9yLWN1cnZhdHVyZT0iMCIgc3R5bGU9ImZpbGw6bm9uZTtzdHJva2U6I0ZGRkZGRjtzdHJva2UtbGluZWNhcDpyb3VuZDtzdHJva2UtbGluZWpvaW46cm91bmQ7c3Ryb2tlLW1pdGVybGltaXQ6MzsiIGQ9IiAgICAgIE0wLjQyLDQyLjA3QzAsNDIuMiw3LjIzLDM5LjQzLDExLjM0LDQ0LjY3YzEuNDUsMS44Ni0wLjI0LDkuNDMtNC4yNiwxNS40Ii8+JiN4YTsJCQk8L2c+JiN4YTsJCQk8ZyBpZD0ic2hhcGUzNzM5LTQyIiB0cmFuc2Zvcm09InRyYW5zbGF0ZSg5Ljg0MzI3LC0xMC42MTg5KSI+JiN4YTsJCQkJPHRpdGxlIGlkPSJ0aXRsZTEwMzA2OCI+cGF0aDI0NzI8L3RpdGxlPiYjeGE7CQkJCTxwYXRoIGlkPSJwYXRoMTAzMDcwIiBpbmtzY2FwZTpjb25uZWN0b3ItY3VydmF0dXJlPSIwIiBzdHlsZT0iZmlsbDojM0Y1NzY1OyIgZD0iTTE2LjYzLDU3YzAsMCwwLjI2LDEuMjksNC4wNywwLjUxICAgICAgYzEuNjctMC4zNSwwLjY2LDAuOTctMS4wMywxLjc1Yy0xLjM5LDAuNjUtNC41LDAuODEtNC41Ni0wLjA4QzE0Ljk4LDU2Ljg4LDE2Ljc1LDU3LjU4LDE2LjYzLDU3ICAgICAgYy0wLjEyLTAuNTEtMC45MS0xLjAyLTEuNDMtMi4yOWMtMC40Ni0xLjExLTYuMjctOS42MSwxLjYxLTguMzVjMC4yOS0wLjA2LTIuMDYtNy40OS05LjQ0LTcuNjFDMCwzOC42MiwwLjI0LDQ3LjgxLDAuMjQsNDcuODEgICAgICBMMTYuNjMsNTd6Ii8+JiN4YTsJCQkJJiN4YTsJCQkJCTxwYXRoIGlkPSJwYXRoMTAzMDcyIiBpbmtzY2FwZTpjb25uZWN0b3ItY3VydmF0dXJlPSIwIiBzdHlsZT0iZmlsbDpub25lO3N0cm9rZTojRkZGRkZGO3N0cm9rZS1saW5lY2FwOnJvdW5kO3N0cm9rZS1saW5lam9pbjpyb3VuZDtzdHJva2UtbWl0ZXJsaW1pdDozOyIgZD0iICAgICAgTTE2LjYzLDU3YzAsMCwwLjI2LDEuMjksNC4wNywwLjUxYzEuNjctMC4zNSwwLjY2LDAuOTctMS4wMywxLjc1Yy0xLjM5LDAuNjUtNC41LDAuODEtNC41Ni0wLjA4ICAgICAgQzE0Ljk4LDU2Ljg4LDE2Ljc1LDU3LjU4LDE2LjYzLDU3Yy0wLjEyLTAuNTEtMC45MS0xLjAyLTEuNDMtMi4yOWMtMC40Ni0xLjExLTYuMjctOS42MSwxLjYxLTguMzUgICAgICBjMC4yOS0wLjA2LTIuMDYtNy40OS05LjQ0LTcuNjFDMCwzOC42MiwwLjI0LDQ3LjgxLDAuMjQsNDcuODEiLz4mI3hhOwkJCTwvZz4mI3hhOwkJCTxnIGlkPSJzaGFwZTM3NDAtNDUiIHRyYW5zZm9ybT0idHJhbnNsYXRlKDkuNTE2NDIsLTkuMTUxNSkiPiYjeGE7CQkJCTx0aXRsZSBpZD0idGl0bGUxMDMwNzUiPnBhdGgyNDc0PC90aXRsZT4mI3hhOwkJCQkmI3hhOwkJCQkJPHBhdGggaWQ9InBhdGgxMDMwNzciIGlua3NjYXBlOmNvbm5lY3Rvci1jdXJ2YXR1cmU9IjAiIHN0eWxlPSJmaWxsOiMzRjU3NjU7c3Ryb2tlOiNGRkZGRkY7c3Ryb2tlLWxpbmVjYXA6cm91bmQ7c3Ryb2tlLWxpbmVqb2luOnJvdW5kO3N0cm9rZS1taXRlcmxpbWl0OjM7IiBkPSIgICAgICBNNC44Niw1Ni4zMmMtMS4wMywxLjE1LTAuNzMsMS4zNS0yLjc4LDEuNzhDMCw1OC41MywxLjIyLDU5LjI5LDIuMDIsNTkuNDljMC45NywwLjI0LDMuMiwwLjU4LDQuNzEtMS41MyAgICAgIGMwLjQ2LTAuNjUsMC0xLjY4LTAuNjMtMS45NEM1Ljc5LDU1Ljg5LDUuMzksNTUuNzQsNC44Niw1Ni4zMnoiLz4mI3hhOwkJCTwvZz4mI3hhOwkJCTxnIGlkPSJzaGFwZTM3NDEtNDciIHRyYW5zZm9ybT0idHJhbnNsYXRlKDkuNjEzNCwtMTIuOTIwMSkiPiYjeGE7CQkJCTx0aXRsZSBpZD0idGl0bGUxMDMwODAiPnBhdGgyNDc2PC90aXRsZT4mI3hhOwkJCQk8cGF0aCBpZD0icGF0aDEwMzA4MiIgaW5rc2NhcGU6Y29ubmVjdG9yLWN1cnZhdHVyZT0iMCIgc3R5bGU9ImZpbGw6IzNGNTc2NTsiIGQ9Ik00LjcsNjAuMDdjLTAuMTEtMC42NywwLjIyLTEuNDgsMC41Ny0yLjQyICAgICAgYzAuNTItMS40MSwxLjczLTIuODIsMC43Ni03LjI5Yy0wLjcyLTMuMzQtNS41Ni0wLjctNS41Ni0wLjI0YzAsMC40NSwwLjIyLDIuMjktMC4wOCw0LjQzQzAsNTcuMzQsMi4xNyw1OS43MSw0LjY3LDU5LjQ3ICAgICAgTDQuNyw2MC4wN3oiLz4mI3hhOwkJCQkmI3hhOwkJCQkJPHBhdGggaWQ9InBhdGgxMDMwODQiIGlua3NjYXBlOmNvbm5lY3Rvci1jdXJ2YXR1cmU9IjAiIHN0eWxlPSJmaWxsOm5vbmU7c3Ryb2tlOiNGRkZGRkY7c3Ryb2tlLWxpbmVjYXA6cm91bmQ7c3Ryb2tlLWxpbmVqb2luOnJvdW5kO3N0cm9rZS1taXRlcmxpbWl0OjM7IiBkPSIgICAgICBNNC43LDYwLjA3Yy0wLjExLTAuNjcsMC4yMi0xLjQ4LDAuNTctMi40MmMwLjUyLTEuNDEsMS43My0yLjgyLDAuNzYtNy4yOWMtMC43Mi0zLjM0LTUuNTYtMC43LTUuNTYtMC4yNCAgICAgIGMwLDAuNDUsMC4yMiwyLjI5LTAuMDgsNC40M0MwLDU3LjM0LDIuMTcsNTkuNzEsNC42Nyw1OS40NyIvPiYjeGE7CQkJPC9nPiYjeGE7CQkJPGcgaWQ9InNoYXBlMzc0Mi01MCIgdHJhbnNmb3JtPSJ0cmFuc2xhdGUoMTMuMTM2OCwtMjIuMjY3NikiPiYjeGE7CQkJCTx0aXRsZSBpZD0idGl0bGUxMDMwODciPnBhdGgyNDc4PC90aXRsZT4mI3hhOwkJCQk8cGF0aCBpZD0icGF0aDEwMzA4OSIgaW5rc2NhcGU6Y29ubmVjdG9yLWN1cnZhdHVyZT0iMCIgc3R5bGU9ImZpbGw6I0ZGRkZGRjtzdHJva2U6I0ZGRkZGRjtzdHJva2UtbWl0ZXJsaW1pdDozOyIgZD0iICAgICAgTTAuMDIsNTkuNEMwLDU5LjU1LDAuMyw1OS45NiwwLjcsNjAuMDJjMC40LDAuMDUsMC43NC0wLjI3LDAuNzYtMC40MmMwLjAyLTAuMTYtMC4yOC0wLjMzLTAuNjgtMC4zOCAgICAgIEMwLjM4LDU5LjE2LDAuMDQsNTkuMjQsMC4wMiw1OS40eiIvPiYjeGE7CQkJPC9nPiYjeGE7CQkJPGcgaWQ9InNoYXBlMzc0My01MiIgdHJhbnNmb3JtPSJ0cmFuc2xhdGUoMjMuNzczMywtMjIuNTgyNCkiPiYjeGE7CQkJCTx0aXRsZSBpZD0idGl0bGUxMDMwOTIiPnBhdGgyNDgwPC90aXRsZT4mI3hhOwkJCQk8cGF0aCBpZD0icGF0aDEwMzA5NCIgaW5rc2NhcGU6Y29ubmVjdG9yLWN1cnZhdHVyZT0iMCIgc3R5bGU9ImZpbGw6I0ZGRkZGRjtzdHJva2U6I0ZGRkZGRjtzdHJva2UtbWl0ZXJsaW1pdDozOyIgZD0iICAgICAgTTEuNDYsNTkuNGMwLjAyLDAuMTUtMC4yOCwwLjU2LTAuNjgsMC42MmMtMC40LDAuMDUtMC43NC0wLjI3LTAuNzYtMC40MkMwLDU5LjQ0LDAuMyw1OS4yNywwLjcsNTkuMjIgICAgICBDMS4xLDU5LjE2LDEuNDQsNTkuMjQsMS40Niw1OS40eiIvPiYjeGE7CQkJPC9nPiYjeGE7CQkJPGcgaWQ9InNoYXBlMzc0NC01NCIgdHJhbnNmb3JtPSJ0cmFuc2xhdGUoMjUuODAzOSwtMTQuODM1MikiPiYjeGE7CQkJCTx0aXRsZSBpZD0idGl0bGUxMDMwOTciPnBhdGgyNDgyPC90aXRsZT4mI3hhOwkJCQk8cGF0aCBpZD0icGF0aDEwMzA5OSIgaW5rc2NhcGU6Y29ubmVjdG9yLWN1cnZhdHVyZT0iMCIgc3R5bGU9ImZpbGw6IzMxNjE5MjsiIGQ9Ik0wLjg1LDUwLjU4YzAuMDYsMS4yMS0wLjI2LDIuMDQtMC4zMSwzLjMzICAgICAgYy0wLjA2LDEuODcsMC45LDQuMDEtMC41NCw2LjE2TDAuODUsNTAuNTh6Ii8+JiN4YTsJCQkJJiN4YTsJCQkJCTxwYXRoIGlkPSJwYXRoMTAzMTAxIiBpbmtzY2FwZTpjb25uZWN0b3ItY3VydmF0dXJlPSIwIiBzdHlsZT0iZmlsbDpub25lO3N0cm9rZTojRkZGRkZGO3N0cm9rZS1saW5lY2FwOnJvdW5kO3N0cm9rZS1saW5lam9pbjpyb3VuZDtzdHJva2UtbWl0ZXJsaW1pdDozOyIgZD0iICAgICAgTTAuODUsNTAuNThjMC4wNiwxLjIxLTAuMjYsMi4wNC0wLjMxLDMuMzNjLTAuMDYsMS44NywwLjksNC4wMS0wLjU0LDYuMTYiLz4mI3hhOwkJCTwvZz4mI3hhOwkJPC9nPiYjeGE7CTwvZz4mI3hhOzwvZz4mI3hhOzwvc3ZnPg==;" parent="1" vertex="1">
          <mxGeometry x="500" y="510" width="53" height="60" as="geometry" />
        </mxCell>
        <mxCell id="ipKOsSa-04tjCjAecpSO-2086" style="edgeStyle=orthogonalEdgeStyle;rounded=0;orthogonalLoop=1;jettySize=auto;html=1;" edge="1" parent="1" source="ipKOsSa-04tjCjAecpSO-2085">
          <mxGeometry relative="1" as="geometry">
            <mxPoint x="680" y="930" as="targetPoint" />
          </mxGeometry>
        </mxCell>
        <mxCell id="ipKOsSa-04tjCjAecpSO-2085" value="" style="shape=image;verticalLabelPosition=bottom;labelBackgroundColor=#ffffff;verticalAlign=top;aspect=fixed;imageAspect=0;image=data:image/svg+xml,PHN2ZyB4bWxuczpjYz0iaHR0cDovL2NyZWF0aXZlY29tbW9ucy5vcmcvbnMjIiB4bWxuczpkYz0iaHR0cDovL3B1cmwub3JnL2RjL2VsZW1lbnRzLzEuMS8iIHhtbG5zOmlua3NjYXBlPSJodHRwOi8vd3d3Lmlua3NjYXBlLm9yZy9uYW1lc3BhY2VzL2lua3NjYXBlIiB4bWxuczpyZGY9Imh0dHA6Ly93d3cudzMub3JnLzE5OTkvMDIvMjItcmRmLXN5bnRheC1ucyMiIHhtbG5zOnNvZGlwb2RpPSJodHRwOi8vc29kaXBvZGkuc291cmNlZm9yZ2UubmV0L0RURC9zb2RpcG9kaS0wLmR0ZCIgeG1sbnM6c3ZnPSJodHRwOi8vd3d3LnczLm9yZy8yMDAwL3N2ZyIgeG1sbnM9Imh0dHA6Ly93d3cudzMub3JnLzIwMDAvc3ZnIiB4bWxuczp4bGluaz0iaHR0cDovL3d3dy53My5vcmcvMTk5OS94bGluayIgdmVyc2lvbj0iMS4xIiBpZD0ic3ZnMTAzNDc0IiBpbmtzY2FwZTp2ZXJzaW9uPSIwLjkyLjMgKDI0MDU1NDYsIDIwMTgtMDMtMTEpIiBzb2RpcG9kaTpkb2NuYW1lPSJyZWRpcy5zdmciIHg9IjBweCIgeT0iMHB4IiB2aWV3Qm94PSIwIDAgMzcuNTEgMzEuNiIgc3R5bGU9ImVuYWJsZS1iYWNrZ3JvdW5kOm5ldyAwIDAgMzcuNTEgMzEuNjsiIHhtbDpzcGFjZT0icHJlc2VydmUiPiYjeGE7PHNvZGlwb2RpOm5hbWVkdmlldyBib3JkZXJjb2xvcj0iIzY2NjY2NiIgYm9yZGVyb3BhY2l0eT0iMSIgZml0LW1hcmdpbi1ib3R0b209IjAiIGZpdC1tYXJnaW4tbGVmdD0iMCIgZml0LW1hcmdpbi1yaWdodD0iMCIgZml0LW1hcmdpbi10b3A9IjAiIGdyaWR0b2xlcmFuY2U9IjEwIiBndWlkZXRvbGVyYW5jZT0iMTAiIGlkPSJuYW1lZHZpZXcxMDM0NzYiIGlua3NjYXBlOmN1cnJlbnQtbGF5ZXI9InN2ZzEwMzQ3NCIgaW5rc2NhcGU6Y3g9IjI1LjAwNTA2MyIgaW5rc2NhcGU6Y3k9IjIxLjA2NDU5MiIgaW5rc2NhcGU6cGFnZW9wYWNpdHk9IjAiIGlua3NjYXBlOnBhZ2VzaGFkb3c9IjIiIGlua3NjYXBlOndpbmRvdy1oZWlnaHQ9IjEwMTciIGlua3NjYXBlOndpbmRvdy1tYXhpbWl6ZWQ9IjEiIGlua3NjYXBlOndpbmRvdy13aWR0aD0iMTkyMCIgaW5rc2NhcGU6d2luZG93LXg9Ii04IiBpbmtzY2FwZTp3aW5kb3cteT0iLTgiIGlua3NjYXBlOnpvb209IjE5LjY0MjUwNCIgb2JqZWN0dG9sZXJhbmNlPSIxMCIgcGFnZWNvbG9yPSIjZmZmZmZmIiBzaG93Z3JpZD0iZmFsc2UiPiYjeGE7CTwvc29kaXBvZGk6bmFtZWR2aWV3PiYjeGE7PGcgaWQ9ImcxMDM0NzIiIHRyYW5zZm9ybT0idHJhbnNsYXRlKC0wLjc0NjgyNzEsLTAuNzUxNjI1KSI+JiN4YTsJPHRpdGxlIGlkPSJ0aXRsZTEwMzM4OCI+UGFnZS0xPC90aXRsZT4mI3hhOwk8ZyBpZD0iZ3JvdXAzNzc2LTEiIHRyYW5zZm9ybT0idHJhbnNsYXRlKDAuNDA3MjksLTAuNjA5Mzc1KSI+JiN4YTsJCTx0aXRsZSBpZD0idGl0bGUxMDMzOTAiPlJlZGlzLjYzNjwvdGl0bGU+JiN4YTsJCTxnIGlkPSJncm91cDM3NzctMiI+JiN4YTsJCQk8dGl0bGUgaWQ9InRpdGxlMTAzMzkyIj5TaGVldC4zNzc3PC90aXRsZT4mI3hhOwkJCTxnIGlkPSJzaGFwZTM3NzgtMyIgdHJhbnNmb3JtPSJ0cmFuc2xhdGUoMC4yMzcpIj4mI3hhOwkJCQk8dGl0bGUgaWQ9InRpdGxlMTAzMzk0Ij5TaGVldC4zNzc4PC90aXRsZT4mI3hhOwkJCQk8cGF0aCBpZD0icGF0aDEwMzM5NiIgaW5rc2NhcGU6Y29ubmVjdG9yLWN1cnZhdHVyZT0iMCIgc3R5bGU9ImZpbGw6I0JBMTQxQTsiIGQ9Ik0wLjExLDI1LjE5Yy0wLjA2LDAuNCwwLjI4LDAuOCwxLjAyLDEuMTEgICAgICBsMTUuMjQsNi4yNGMxLjM3LDAuNTYsMy42LDAuNTYsNC45NywwbDE1LjI0LTYuMjRjMC43NC0wLjMxLDEuMDgtMC43MSwxLjAyLTEuMTF2LTMuNThjMC4wNSwwLjM5LTAuMjksMC43OS0xLjAyLDEuMDkgICAgICBsLTE1LjI0LDYuMjRjLTEuMzcsMC41Ni0zLjYsMC41Ni00Ljk3LDBMMS4xMywyMi43Yy0wLjgtMC4zMy0xLjEzLTAuNzgtMS0xLjJMMC4xMSwyNS4xOXoiLz4mI3hhOwkJCTwvZz4mI3hhOwkJCTxnIGlkPSJzaGFwZTM3NzktNSIgdHJhbnNmb3JtPSJ0cmFuc2xhdGUoMCwtMy42KSI+JiN4YTsJCQkJPHRpdGxlIGlkPSJ0aXRsZTEwMzM5OSI+U2hlZXQuMzc3OTwvdGl0bGU+JiN4YTsJCQkJPHBhdGggaWQ9InBhdGgxMDM0MDEiIGlua3NjYXBlOmNvbm5lY3Rvci1jdXJ2YXR1cmU9IjAiIHN0eWxlPSJmaWxsOiNCQTE0MUE7IiBkPSJNMzYuODEsMjQuMjZjMS4zOCwwLjU3LDEuMzgsMS40OCwwLDIuMDQgICAgICBsLTE1LjIzLDYuMjRjLTEuMzcsMC41Ni0zLjYsMC41Ni00Ljk3LDBMMS4zNywyNi4zQzAsMjUuNzQsMCwyNC44MywxLjM3LDI0LjI2bDE1LjI0LTYuMjRjMS4zNy0wLjU2LDMuNi0wLjU2LDQuOTcsMCAgICAgIEwzNi44MSwyNC4yNnoiLz4mI3hhOwkJCTwvZz4mI3hhOwkJPC9nPiYjeGE7CQk8ZyBpZD0iZ3JvdXAzNzgwLTciIHRyYW5zZm9ybT0idHJhbnNsYXRlKDAsLTYuMzE5NSkiPiYjeGE7CQkJPHRpdGxlIGlkPSJ0aXRsZTEwMzQwNSI+U2hlZXQuMzc4MDwvdGl0bGU+JiN4YTsJCQk8ZyBpZD0ic2hhcGUzNzgxLTgiIHRyYW5zZm9ybT0idHJhbnNsYXRlKDAuMjM3KSI+JiN4YTsJCQkJPHRpdGxlIGlkPSJ0aXRsZTEwMzQwNyI+U2hlZXQuMzc4MTwvdGl0bGU+JiN4YTsJCQkJPHBhdGggaWQ9InBhdGgxMDM0MDkiIGlua3NjYXBlOmNvbm5lY3Rvci1jdXJ2YXR1cmU9IjAiIHN0eWxlPSJmaWxsOiNCQTE0MUE7IiBkPSJNMC4xMSwyNS4xOWMtMC4wNiwwLjQsMC4yOCwwLjgsMS4wMiwxLjExICAgICAgbDE1LjI0LDYuMjRjMS4zNywwLjU2LDMuNiwwLjU2LDQuOTcsMGwxNS4yNC02LjI0YzAuNzQtMC4zMSwxLjA4LTAuNzEsMS4wMi0xLjExdi0zLjU4YzAuMDUsMC4zOS0wLjI5LDAuNzktMS4wMiwxLjA5ICAgICAgbC0xNS4yNCw2LjI0Yy0xLjM3LDAuNTYtMy42LDAuNTYtNC45NywwTDEuMTMsMjIuN2MtMC44LTAuMzMtMS4xMy0wLjc4LTEtMS4yTDAuMTEsMjUuMTl6Ii8+JiN4YTsJCQk8L2c+JiN4YTsJCQk8ZyBpZD0ic2hhcGUzNzgyLTEwIiB0cmFuc2Zvcm09InRyYW5zbGF0ZSgwLC0zLjYpIj4mI3hhOwkJCQk8dGl0bGUgaWQ9InRpdGxlMTAzNDEyIj5TaGVldC4zNzgyPC90aXRsZT4mI3hhOwkJCQk8cGF0aCBpZD0icGF0aDEwMzQxNCIgaW5rc2NhcGU6Y29ubmVjdG9yLWN1cnZhdHVyZT0iMCIgc3R5bGU9ImZpbGw6I0JBMTQxQTsiIGQ9Ik0zNi44MSwyNC4yNmMxLjM4LDAuNTcsMS4zOCwxLjQ4LDAsMi4wNCAgICAgIGwtMTUuMjMsNi4yNGMtMS4zNywwLjU2LTMuNiwwLjU2LTQuOTcsMEwxLjM3LDI2LjNDMCwyNS43NCwwLDI0LjgzLDEuMzcsMjQuMjZsMTUuMjQtNi4yNGMxLjM3LTAuNTYsMy42LTAuNTYsNC45NywwICAgICAgTDM2LjgxLDI0LjI2eiIvPiYjeGE7CQkJPC9nPiYjeGE7CQk8L2c+JiN4YTsJCTxnIGlkPSJncm91cDM3ODMtMTIiPiYjeGE7CQkJPHRpdGxlIGlkPSJ0aXRsZTEwMzQxOCI+U2hlZXQuMzc4MzwvdGl0bGU+JiN4YTsJCQk8ZyBpZD0ic2hhcGUzNzg0LTEzIiB0cmFuc2Zvcm09InRyYW5zbGF0ZSgwLjIzNywtMTIuNjM5KSI+JiN4YTsJCQkJPHRpdGxlIGlkPSJ0aXRsZTEwMzQyMCI+U2hlZXQuMzc4NDwvdGl0bGU+JiN4YTsJCQkJPHBhdGggaWQ9InBhdGgxMDM0MjIiIGlua3NjYXBlOmNvbm5lY3Rvci1jdXJ2YXR1cmU9IjAiIHN0eWxlPSJmaWxsOiNCQTE0MUE7IiBkPSJNMC4xMSwyNS4xOWMtMC4wNiwwLjQsMC4yOCwwLjgsMS4wMiwxLjExICAgICAgbDE1LjI0LDYuMjRjMS4zNywwLjU2LDMuNiwwLjU2LDQuOTcsMGwxNS4yNC02LjI0YzAuNzQtMC4zMSwxLjA4LTAuNzEsMS4wMi0xLjExdi0zLjU4YzAuMDUsMC4zOS0wLjI5LDAuNzktMS4wMiwxLjA5ICAgICAgbC0xNS4yNCw2LjI0Yy0xLjM3LDAuNTYtMy42LDAuNTYtNC45NywwTDEuMTMsMjIuN2MtMC44LTAuMzMtMS4xMy0wLjc4LTEtMS4yTDAuMTEsMjUuMTl6Ii8+JiN4YTsJCQk8L2c+JiN4YTsJCQk8ZyBpZD0ic2hhcGUzNzg1LTE1IiB0cmFuc2Zvcm09InRyYW5zbGF0ZSgwLjIzNykiPiYjeGE7CQkJCTx0aXRsZSBpZD0idGl0bGUxMDM0MjUiPlNoZWV0LjM3ODU8L3RpdGxlPiYjeGE7CQkJCTxwYXRoIGlkPSJwYXRoMTAzNDI3IiBpbmtzY2FwZTpjb25uZWN0b3ItY3VydmF0dXJlPSIwIiBzdHlsZT0iZmlsbDojMUUxRTFFO2ZpbGwtb3BhY2l0eTowLjI1OyIgZD0iTTAuMTEsMjUuMTkgICAgICBjLTAuMDYsMC40LDAuMjgsMC44LDEuMDIsMS4xMWwxNS4yNCw2LjI0YzEuMzcsMC41NiwzLjYsMC41Niw0Ljk3LDBsMTUuMjQtNi4yNGMwLjc0LTAuMzEsMS4wOC0wLjcxLDEuMDItMS4xMXYtMy41OCAgICAgIGMwLjA1LDAuMzktMC4yOSwwLjc5LTEuMDIsMS4wOWwtMTUuMjQsNi4yNGMtMS4zNywwLjU2LTMuNiwwLjU2LTQuOTcsMEwxLjEzLDIyLjdjLTAuOC0wLjMzLTEuMTMtMC43OC0xLTEuMkwwLjExLDI1LjE5eiIvPiYjeGE7CQkJPC9nPiYjeGE7CQkJPGcgaWQ9InNoYXBlMzc4Ni0xNyIgdHJhbnNmb3JtPSJ0cmFuc2xhdGUoMC4yMzcsLTYuMzE5NSkiPiYjeGE7CQkJCTx0aXRsZSBpZD0idGl0bGUxMDM0MzAiPlNoZWV0LjM3ODY8L3RpdGxlPiYjeGE7CQkJCTxwYXRoIGlkPSJwYXRoMTAzNDMyIiBpbmtzY2FwZTpjb25uZWN0b3ItY3VydmF0dXJlPSIwIiBzdHlsZT0iZmlsbDojMUUxRTFFO2ZpbGwtb3BhY2l0eTowLjI1OyIgZD0iTTAuMTEsMjUuMTkgICAgICBjLTAuMDYsMC40LDAuMjgsMC44LDEuMDIsMS4xMWwxNS4yNCw2LjI0YzEuMzcsMC41NiwzLjYsMC41Niw0Ljk3LDBsMTUuMjQtNi4yNGMwLjc0LTAuMzEsMS4wOC0wLjcxLDEuMDItMS4xMXYtMy41OCAgICAgIGMwLjA1LDAuMzktMC4yOSwwLjc5LTEuMDIsMS4wOWwtMTUuMjQsNi4yNGMtMS4zNywwLjU2LTMuNiwwLjU2LTQuOTcsMEwxLjEzLDIyLjdjLTAuOC0wLjMzLTEuMTMtMC43OC0xLTEuMkwwLjExLDI1LjE5eiIvPiYjeGE7CQkJPC9nPiYjeGE7CQkJPGcgaWQ9InNoYXBlMzc4Ny0xOSIgdHJhbnNmb3JtPSJ0cmFuc2xhdGUoMC4yMzcsLTEyLjYzOSkiPiYjeGE7CQkJCTx0aXRsZSBpZD0idGl0bGUxMDM0MzUiPlNoZWV0LjM3ODc8L3RpdGxlPiYjeGE7CQkJCTxwYXRoIGlkPSJwYXRoMTAzNDM3IiBpbmtzY2FwZTpjb25uZWN0b3ItY3VydmF0dXJlPSIwIiBzdHlsZT0iZmlsbDojMUUxRTFFO2ZpbGwtb3BhY2l0eTowLjI1OyIgZD0iTTAuMTEsMjUuMTkgICAgICBjLTAuMDYsMC40LDAuMjgsMC44LDEuMDIsMS4xMWwxNS4yNCw2LjI0YzEuMzcsMC41NiwzLjYsMC41Niw0Ljk3LDBsMTUuMjQtNi4yNGMwLjc0LTAuMzEsMS4wOC0wLjcxLDEuMDItMS4xMXYtMy41OCAgICAgIGMwLjA1LDAuMzktMC4yOSwwLjc5LTEuMDIsMS4wOWwtMTUuMjQsNi4yNGMtMS4zNywwLjU2LTMuNiwwLjU2LTQuOTcsMEwxLjEzLDIyLjdjLTAuOC0wLjMzLTEuMTMtMC43OC0xLTEuMkwwLjExLDI1LjE5eiIvPiYjeGE7CQkJPC9nPiYjeGE7CQkJPGcgaWQ9InNoYXBlMzc4OC0yMSIgdHJhbnNmb3JtPSJ0cmFuc2xhdGUoMCwtMTYuMjM5KSI+JiN4YTsJCQkJPHRpdGxlIGlkPSJ0aXRsZTEwMzQ0MCI+U2hlZXQuMzc4ODwvdGl0bGU+JiN4YTsJCQkJPHBhdGggaWQ9InBhdGgxMDM0NDIiIGlua3NjYXBlOmNvbm5lY3Rvci1jdXJ2YXR1cmU9IjAiIHN0eWxlPSJmaWxsOiNCQTE0MUE7IiBkPSJNMzYuODEsMjQuMjZjMS4zOCwwLjU3LDEuMzgsMS40OCwwLDIuMDQgICAgICBsLTE1LjIzLDYuMjRjLTEuMzcsMC41Ni0zLjYsMC41Ni00Ljk3LDBMMS4zNywyNi4zQzAsMjUuNzQsMCwyNC44MywxLjM3LDI0LjI2bDE1LjI0LTYuMjRjMS4zNy0wLjU2LDMuNi0wLjU2LDQuOTcsMCAgICAgIEwzNi44MSwyNC4yNnoiLz4mI3hhOwkJCTwvZz4mI3hhOwkJPC9nPiYjeGE7CQk8ZyBpZD0ic2hhcGUzNzg5LTIzIiB0cmFuc2Zvcm09InRyYW5zbGF0ZSg2LjM2MTUsLTIyLjExMjMpIj4mI3hhOwkJCTx0aXRsZSBpZD0idGl0bGUxMDM0NDYiPlNoZWV0LjM3ODk8L3RpdGxlPiYjeGE7CQkJPHBhdGggaWQ9InBhdGgxMDM0NDgiIGlua3NjYXBlOmNvbm5lY3Rvci1jdXJ2YXR1cmU9IjAiIHN0eWxlPSJmaWxsOiNGRkZGRkY7IiBkPSJNOC4wNCwzMi4zM2MtMS43NCwwLjc3LTQuNTYsMC43Ny02LjMsMCAgICAgQzAsMzEuNTYsMCwzMC4zLDEuNzQsMjkuNTNjMS43NC0wLjc3LDQuNTYtMC43Nyw2LjMsMEM5Ljc3LDMwLjMsOS43OCwzMS41Niw4LjA0LDMyLjMzeiIvPiYjeGE7CQk8L2c+JiN4YTsJCTxnIGlkPSJzaGFwZTM3OTAtMjUiIHRyYW5zZm9ybT0idHJhbnNsYXRlKDEzLjIxOCwtMTcuOTg4KSI+JiN4YTsJCQk8dGl0bGUgaWQ9InRpdGxlMTAzNDUxIj5TaGVldC4zNzkwPC90aXRsZT4mI3hhOwkJCTxwYXRoIGlkPSJwYXRoMTAzNDUzIiBpbmtzY2FwZTpjb25uZWN0b3ItY3VydmF0dXJlPSIwIiBzdHlsZT0iZmlsbDojRkZGRkZGOyIgZD0iTTAsMzAuMmw4LjkyLTEuMDZMNi41MywzMy4xTDAsMzAuMnoiLz4mI3hhOwkJPC9nPiYjeGE7CQk8ZyBpZD0ic2hhcGUzNzkxLTI3IiB0cmFuc2Zvcm09InRyYW5zbGF0ZSgyMS44NjQsLTIxLjg5MSkiPiYjeGE7CQkJPHRpdGxlIGlkPSJ0aXRsZTEwMzQ1NiI+U2hlZXQuMzc5MTwvdGl0bGU+JiN4YTsJCQk8cGF0aCBpZD0icGF0aDEwMzQ1OCIgaW5rc2NhcGU6Y29ubmVjdG9yLWN1cnZhdHVyZT0iMCIgc3R5bGU9ImZpbGw6IzFFMUUxRTtmaWxsLW9wYWNpdHk6MC4yNTsiIGQ9Ik01LjM0LDMzLjFMMCwzMC43MyAgICAgbDUuMzQtMi4zN2w1LjMzLDIuMzdMNS4zNCwzMy4xeiIvPiYjeGE7CQk8L2c+JiN4YTsJCTxnIGlkPSJzaGFwZTM3OTItMjkiIHRyYW5zZm9ybT0idHJhbnNsYXRlKDIxLjg2NCwtMjEuODkxKSI+JiN4YTsJCQk8dGl0bGUgaWQ9InRpdGxlMTAzNDYxIj5TaGVldC4zNzkyPC90aXRsZT4mI3hhOwkJCTxwYXRoIGlkPSJwYXRoMTAzNDYzIiBpbmtzY2FwZTpjb25uZWN0b3ItY3VydmF0dXJlPSIwIiBzdHlsZT0iZmlsbDojMUUxRTFFO2ZpbGwtb3BhY2l0eTowLjI1OyIgZD0iTTUuMzQsMzMuMUwwLDMwLjczICAgICBsNS4zNC0yLjM3VjMzLjF6Ii8+JiN4YTsJCTwvZz4mI3hhOwkJPGcgaWQ9InNoYXBlMzc5My0zMSIgdHJhbnNmb3JtPSJ0cmFuc2xhdGUoMTMuODk2NywtMjUuNjE1NSkiPiYjeGE7CQkJPHRpdGxlIGlkPSJ0aXRsZTEwMzQ2NiI+U2hlZXQuMzc5MzwvdGl0bGU+JiN4YTsJCQk8cGF0aCBpZD0icGF0aDEwMzQ2OCIgaW5rc2NhcGU6Y29ubmVjdG9yLWN1cnZhdHVyZT0iMCIgc3R5bGU9ImZpbGw6I0ZGRkZGRjsiIGQ9Ik0zLjQ4LDMxLjU1TDAsMzEuMjRsMy4wOS0wLjc4bC0wLjQtMS41NyAgICAgbDIuNjIsMS4wN2wzLjI0LTAuNjZsLTEuNDgsMS40NGwyLjQxLDEuMTdsLTMuNTQtMC4xOEw0LjE5LDMzLjFMMy40OCwzMS41NXoiLz4mI3hhOwkJPC9nPiYjeGE7CTwvZz4mI3hhOzwvZz4mI3hhOzwvc3ZnPg==;" vertex="1" parent="1">
          <mxGeometry x="623.19" y="652" width="150.81" height="127" as="geometry" />
        </mxCell>
        <mxCell id="ipKOsSa-04tjCjAecpSO-2087" value="" style="shape=image;verticalLabelPosition=bottom;labelBackgroundColor=#ffffff;verticalAlign=top;aspect=fixed;imageAspect=0;image=data:image/svg+xml,PHN2ZyB4bWxuczpjYz0iaHR0cDovL2NyZWF0aXZlY29tbW9ucy5vcmcvbnMjIiB4bWxuczpkYz0iaHR0cDovL3B1cmwub3JnL2RjL2VsZW1lbnRzLzEuMS8iIHhtbG5zOmlua3NjYXBlPSJodHRwOi8vd3d3Lmlua3NjYXBlLm9yZy9uYW1lc3BhY2VzL2lua3NjYXBlIiB4bWxuczpyZGY9Imh0dHA6Ly93d3cudzMub3JnLzE5OTkvMDIvMjItcmRmLXN5bnRheC1ucyMiIHhtbG5zOnNvZGlwb2RpPSJodHRwOi8vc29kaXBvZGkuc291cmNlZm9yZ2UubmV0L0RURC9zb2RpcG9kaS0wLmR0ZCIgeG1sbnM6c3ZnPSJodHRwOi8vd3d3LnczLm9yZy8yMDAwL3N2ZyIgeG1sbnM9Imh0dHA6Ly93d3cudzMub3JnLzIwMDAvc3ZnIiB4bWxuczp4bGluaz0iaHR0cDovL3d3dy53My5vcmcvMTk5OS94bGluayIgdmVyc2lvbj0iMS4xIiBpZD0ic3ZnMTAwMzAzIiBpbmtzY2FwZTp2ZXJzaW9uPSIwLjkyLjMgKDI0MDU1NDYsIDIwMTgtMDMtMTEpIiBzb2RpcG9kaTpkb2NuYW1lPSJnZW5lcmljX2RhdGFiYXNlX2JsdWUuc3ZnIiB4PSIwcHgiIHk9IjBweCIgdmlld0JveD0iMCAwIDM2Ljc5IDQ3LjY5IiBzdHlsZT0iZW5hYmxlLWJhY2tncm91bmQ6bmV3IDAgMCAzNi43OSA0Ny42OTsiIHhtbDpzcGFjZT0icHJlc2VydmUiPiYjeGE7PHNvZGlwb2RpOm5hbWVkdmlldyBib3JkZXJjb2xvcj0iIzY2NjY2NiIgYm9yZGVyb3BhY2l0eT0iMSIgZml0LW1hcmdpbi1ib3R0b209IjAiIGZpdC1tYXJnaW4tbGVmdD0iMCIgZml0LW1hcmdpbi1yaWdodD0iMCIgZml0LW1hcmdpbi10b3A9IjAiIGdyaWR0b2xlcmFuY2U9IjEwIiBndWlkZXRvbGVyYW5jZT0iMTAiIGlkPSJuYW1lZHZpZXcxMDAzMDUiIGlua3NjYXBlOmN1cnJlbnQtbGF5ZXI9InN2ZzEwMDMwMyIgaW5rc2NhcGU6Y3g9IjI0LjUzMDAwMSIgaW5rc2NhcGU6Y3k9IjMxLjc5MTY2OSIgaW5rc2NhcGU6cGFnZW9wYWNpdHk9IjAiIGlua3NjYXBlOnBhZ2VzaGFkb3c9IjIiIGlua3NjYXBlOndpbmRvdy1oZWlnaHQ9IjEwMTciIGlua3NjYXBlOndpbmRvdy1tYXhpbWl6ZWQ9IjEiIGlua3NjYXBlOndpbmRvdy13aWR0aD0iMTkyMCIgaW5rc2NhcGU6d2luZG93LXg9Ii04IiBpbmtzY2FwZTp3aW5kb3cteT0iLTgiIGlua3NjYXBlOnpvb209IjEzLjIxODQ4MSIgb2JqZWN0dG9sZXJhbmNlPSIxMCIgcGFnZWNvbG9yPSIjZmZmZmZmIiBzaG93Z3JpZD0iZmFsc2UiPiYjeGE7CTwvc29kaXBvZGk6bmFtZWR2aWV3PiYjeGE7PGcgaWQ9ImcxMDAzMDEiIHRyYW5zZm9ybT0idHJhbnNsYXRlKC0wLjc1LC0wLjc0NSkiPiYjeGE7CTx0aXRsZSBpZD0idGl0bGUxMDAyNjkiPlBhZ2UtMTwvdGl0bGU+JiN4YTsJPGcgaWQ9Imdyb3VwMzQ5My0xIiB0cmFuc2Zvcm09InRyYW5zbGF0ZSgxLjUsLTEuNSkiPiYjeGE7CQk8dGl0bGUgaWQ9InRpdGxlMTAwMjcxIj5HZW5lcmljIERhdGFiYXNlIChCbHVlKTwvdGl0bGU+JiN4YTsJCTxnIGlkPSJncm91cDM0OTQtMiI+JiN4YTsJCQk8dGl0bGUgaWQ9InRpdGxlMTAwMjczIj5nMTQ1MDwvdGl0bGU+JiN4YTsJCQk8ZyBpZD0ic2hhcGUzNDk1LTMiPiYjeGE7CQkJCTx0aXRsZSBpZD0idGl0bGUxMDAyNzUiPnBhdGgxNDQyPC90aXRsZT4mI3hhOwkJCQk8cGF0aCBpZD0icGF0aDEwMDI3NyIgaW5rc2NhcGU6Y29ubmVjdG9yLWN1cnZhdHVyZT0iMCIgc3R5bGU9ImZpbGw6I0ZGRkZGRjsiIGQ9Ik0zMS43OSw5TDIxLjQ0LDkuMDlMMCw5LjI3djMzLjM3ICAgICAgYzAsMy40Miw3LjUsNi4zNywxNy4yNSw2LjU1aDAuMzdjMS4zMiwwLDIuNi0wLjA3LDMuODItMC4xOWMzLjU3LTAuMjIsNy4wOC0xLjA3LDEwLjM1LTIuNTNjMi4xOS0xLjEsMy40Ni0yLjQ0LDMuNDYtMy44M1Y4Ljk3ICAgICAgTDMxLjc5LDl6Ii8+JiN4YTsJCQk8L2c+JiN4YTsJCQk8ZyBpZD0ic2hhcGUzNDk2LTUiIHRyYW5zZm9ybT0idHJhbnNsYXRlKDIxLjQ0MjUsLTAuMjEpIj4mI3hhOwkJCQk8dGl0bGUgaWQ9InRpdGxlMTAwMjgwIj5wYXRoMTQ0NDwvdGl0bGU+JiN4YTsJCQkJPHBhdGggaWQ9InBhdGgxMDAyODIiIGlua3NjYXBlOmNvbm5lY3Rvci1jdXJ2YXR1cmU9IjAiIHN0eWxlPSJmaWxsOiNFNUU1RTU7IiBkPSJNMTAuMzUsOS4yMXYzNy40NSAgICAgIEM3LjA4LDQ4LjEyLDMuNTcsNDguOTcsMCw0OS4xOVY5LjNMMTAuMzUsOS4yMXoiLz4mI3hhOwkJCTwvZz4mI3hhOwkJCTxnIGlkPSJzaGFwZTM0OTctNyI+JiN4YTsJCQkJPHRpdGxlIGlkPSJ0aXRsZTEwMDI4NSI+cGF0aDE0NDY8L3RpdGxlPiYjeGE7CQkJCTxwYXRoIGlkPSJwYXRoMTAwMjg3IiBpbmtzY2FwZTpjb25uZWN0b3ItY3VydmF0dXJlPSIwIiBzdHlsZT0iZmlsbDpub25lOyIgZD0iTTAsOS4yN3YzMy4zN2MwLDMuNDIsNy40Niw2LjM3LDE3LjI1LDYuNTVoMC4zNyAgICAgIGM5Ljk3LTAuMTMsMTcuNjMtMy4xLDE3LjYzLTYuNTVWOC45N0wwLDkuMjd6Ii8+JiN4YTsJCQkJJiN4YTsJCQkJCTxwYXRoIGlkPSJwYXRoMTAwMjg5IiBpbmtzY2FwZTpjb25uZWN0b3ItY3VydmF0dXJlPSIwIiBzdHlsZT0iZmlsbDpub25lO3N0cm9rZTojNTU2QThBO3N0cm9rZS13aWR0aDoxLjU7c3Ryb2tlLW1pdGVybGltaXQ6MzsiIGQ9IiAgICAgIE0wLDkuMjd2MzMuMzdjMCwzLjQyLDcuNDYsNi4zNywxNy4yNSw2LjU1aDAuMzdjOS45Ny0wLjEzLDE3LjYzLTMuMSwxNy42My02LjU1VjguOTciLz4mI3hhOwkJCTwvZz4mI3hhOwkJCTxnIGlkPSJzaGFwZTM0OTgtMTAiIHRyYW5zZm9ybT0idHJhbnNsYXRlKDAuMDQ1LC0zMy40NjUpIj4mI3hhOwkJCQk8dGl0bGUgaWQ9InRpdGxlMTAwMjkyIj5wYXRoMTQ0ODwvdGl0bGU+JiN4YTsJCQkJPHBhdGggaWQ9InBhdGgxMDAyOTQiIGlua3NjYXBlOmNvbm5lY3Rvci1jdXJ2YXR1cmU9IjAiIHN0eWxlPSJmaWxsOiM1NUQyRjY7IiBkPSJNMzUuMjUsNDIuODJjMCwzLjUyLTcuODksNi4zNy0xNy42Myw2LjM3ICAgICAgQzcuODksNDkuMTksMCw0Ni4zNCwwLDQyLjgyYzAtMy41MSw4LjEyLTYuMzYsMTcuODYtNi4zNkMyNy41OSwzNi40NiwzNS4yNSwzOS4zMSwzNS4yNSw0Mi44MkwzNS4yNSw0Mi44MnoiLz4mI3hhOwkJCQkmI3hhOwkJCQkJPHBhdGggaWQ9InBhdGgxMDAyOTYiIGlua3NjYXBlOmNvbm5lY3Rvci1jdXJ2YXR1cmU9IjAiIHN0eWxlPSJmaWxsOm5vbmU7c3Ryb2tlOiM1NTZBOEE7c3Ryb2tlLXdpZHRoOjEuNTtzdHJva2UtbWl0ZXJsaW1pdDozOyIgZD0iICAgICAgTTM1LjI1LDQyLjgyYzAsMy41Mi03Ljg5LDYuMzctMTcuNjMsNi4zN0M3Ljg5LDQ5LjE5LDAsNDYuMzQsMCw0Mi44MmMwLTMuNTEsOC4xMi02LjM2LDE3Ljg2LTYuMzYgICAgICBDMjcuNTksMzYuNDYsMzUuMjUsMzkuMzEsMzUuMjUsNDIuODIiLz4mI3hhOwkJCTwvZz4mI3hhOwkJPC9nPiYjeGE7CTwvZz4mI3hhOzwvZz4mI3hhOzwvc3ZnPg==;" vertex="1" parent="1">
          <mxGeometry x="510" y="560" width="37" height="48" as="geometry" />
        </mxCell>
      </root>
    </mxGraphModel>
  </diagram>
</mxfile>
